<?xml version="1.0" standalone="no"?>
<!DOCTYPE svg PUBLIC "-//W3C//DTD SVG 20010904//EN"
 "http://www.w3.org/TR/2001/REC-SVG-20010904/DTD/svg10.dtd">
<svg version="1.0" xmlns="http://www.w3.org/2000/svg"
 width="594.000000pt" height="396.000000pt" viewBox="0 0 594.000000 396.000000"
 preserveAspectRatio="xMidYMid meet">

<g transform="translate(0.000000,396.000000) scale(0.100000,-0.100000)"
fill="#000000" stroke="none">
<path d="M0 3904 l0 -55 398 7 c218 4 399 10 402 13 3 3 41 6 85 7 485 4 631
8 636 15 3 5 365 11 805 13 439 3 781 1 759 -3 -30 -7 -22 -7 30 -4 39 3 162
4 275 2 113 -2 225 -2 250 0 137 7 351 -7 366 -25 8 -9 44 -14 125 -17 l114
-3 -122 -2 c-110 -2 -123 -4 -123 -19 0 -15 2 -16 10 -3 9 13 10 13 10 0 0
-13 1 -13 10 0 9 13 10 13 10 0 0 -13 1 -13 10 0 9 13 10 13 10 0 0 -13 1 -13
10 0 9 13 10 13 10 0 0 -13 1 -13 10 0 9 13 10 13 10 0 0 -13 1 -13 10 0 9 13
10 13 10 0 0 -13 1 -13 10 0 9 13 10 13 10 0 0 -13 1 -13 10 0 9 13 10 13 10
0 0 -13 1 -13 10 0 9 13 10 13 10 0 0 -13 1 -13 10 0 9 13 10 13 10 0 0 -13 1
-13 10 0 9 13 10 13 10 0 0 -9 3 -11 8 -5 4 7 54 11 125 10 105 0 120 2 128
18 9 15 21 17 81 15 46 -2 73 -7 76 -15 3 -10 -17 -13 -77 -13 -45 0 -81 -4
-81 -9 0 -13 159 -19 164 -6 3 6 5 0 5 -12 1 -13 5 -23 10 -23 4 0 6 11 3 25
-5 27 12 35 21 11 5 -12 15 -10 58 11 l53 25 26 -32 27 -33 -24 -23 c-13 -13
-23 -28 -23 -34 0 -6 -14 -8 -37 -4 -27 4 -44 1 -58 -10 -11 -9 -15 -16 -10
-15 25 3 33 -2 28 -21 -4 -15 -2 -19 10 -14 10 3 20 -2 27 -15 9 -17 8 -21 -5
-21 -8 0 -15 -8 -15 -18 0 -21 40 -62 59 -62 8 0 11 -7 9 -18 -3 -10 0 -19 6
-19 7 0 11 14 9 36 l-3 36 13 -35 c13 -32 14 -33 25 -15 10 17 11 17 12 3 0
-9 -4 -20 -10 -23 -16 -10 -11 -55 7 -62 14 -5 13 -8 -5 -14 -24 -9 -52 -2
-52 12 0 5 -5 9 -11 9 -5 0 -7 -4 -4 -10 4 -6 -1 -7 -10 -3 -10 3 -20 2 -24
-4 -3 -5 -27 -19 -53 -32 -41 -20 -66 -46 -54 -58 2 -3 7 4 10 14 3 10 16 19
28 20 12 1 25 9 30 17 20 35 96 29 136 -11 7 -7 19 -13 27 -13 21 0 45 -45 39
-76 -2 -16 -1 -24 3 -18 5 7 17 14 28 17 18 4 17 5 -3 6 -13 0 -20 5 -17 11
10 15 -24 70 -43 70 -18 0 -42 18 -42 31 0 3 27 6 60 5 53 -1 60 1 61 19 1 17
2 17 6 3 5 -18 23 -25 23 -9 0 5 9 7 21 4 15 -4 17 -8 8 -14 -23 -14 -4 -19
34 -8 20 5 37 15 37 21 0 7 -6 6 -15 -2 -9 -7 -18 -10 -22 -7 -3 4 9 13 28 21
23 10 36 11 40 4 4 -6 11 -8 17 -4 6 3 13 2 17 -4 3 -5 1 -10 -4 -10 -6 0 -11
-4 -11 -9 0 -10 47 -21 55 -12 4 3 20 6 36 7 24 1 27 -1 18 -12 -8 -9 -8 -14
-1 -14 6 0 14 5 17 10 3 6 14 10 25 10 19 0 45 54 34 72 -3 5 0 15 6 23 14 17
0 21 -16 5 -7 -7 -11 -6 -11 4 0 8 9 13 22 11 18 -1 21 3 18 24 -2 14 0 19 3
11 4 -8 11 -18 16 -21 5 -3 4 -12 -4 -20 -7 -8 -14 -34 -16 -58 -2 -39 -1 -42
13 -27 9 9 21 16 26 16 6 0 15 14 20 30 14 38 25 38 32 0 9 -43 -1 -60 -34
-60 -34 0 -40 -19 -6 -21 12 -1 26 -1 30 0 4 1 7 -4 6 -11 -4 -32 2 -38 41
-38 36 0 40 -2 40 -25 0 -22 4 -25 40 -25 22 0 40 5 40 10 0 6 19 10 42 10 34
0 40 -2 29 -12 -14 -15 -34 -17 -42 -5 -10 14 -29 -1 -29 -21 0 -15 11 -17 75
-16 41 1 75 -2 75 -6 0 -18 -56 -26 -174 -24 -123 2 -130 3 -147 25 -10 13
-21 20 -26 16 -4 -5 -1 -12 7 -17 11 -7 2 -14 -34 -29 -26 -12 -57 -21 -69
-22 -14 0 -17 -3 -8 -6 8 -3 44 0 81 6 62 11 74 10 190 -19 117 -29 127 -30
196 -19 41 6 74 16 74 21 0 5 5 6 10 3 6 -4 29 -4 50 0 l40 7 0 149 c0 93 -4
149 -10 149 -5 0 -10 11 -10 24 0 14 5 28 10 31 6 4 10 80 10 196 l0 189
-2970 0 -2970 0 0 -56z m3440 28 c0 -10 -66 -9 -76 1 -4 4 11 7 34 7 23 0 42
-4 42 -8z m203 1 c-23 -2 -64 -2 -90 0 -26 2 -7 3 42 3 50 0 71 -1 48 -3z
m605 0 c-42 -2 -114 -2 -160 0 -46 1 -11 3 77 3 88 0 125 -2 83 -3z m-3691 -9
c-3 -3 -12 -4 -19 -1 -8 3 -5 6 6 6 11 1 17 -2 13 -5z m306 -1 c-13 -2 -33 -2
-45 0 -13 2 -3 4 22 4 25 0 35 -2 23 -4z m400 0 c-13 -2 -33 -2 -45 0 -13 2
-3 4 22 4 25 0 35 -2 23 -4z m550 0 c-7 -2 -21 -2 -30 0 -10 3 -4 5 12 5 17 0
24 -2 18 -5z m235 0 c-21 -2 -57 -2 -80 0 -24 2 -7 4 37 4 44 0 63 -2 43 -4z
m735 0 c-13 -2 -33 -2 -45 0 -13 2 -3 4 22 4 25 0 35 -2 23 -4z m-2080 -30
c-13 -2 -33 -2 -45 0 -13 2 -3 4 22 4 25 0 35 -2 23 -4z m3967 -23 c0 -5 -4
-10 -10 -10 -5 0 -10 5 -10 10 0 6 5 10 10 10 6 0 10 -4 10 -10z m40 -5 c0 -8
-4 -15 -10 -15 -5 0 -10 7 -10 15 0 8 5 15 10 15 6 0 10 -7 10 -15z m57 -1
c-3 -3 -12 -4 -19 -1 -8 3 -5 6 6 6 11 1 17 -2 13 -5z m73 -4 c0 -5 -5 -10
-11 -10 -5 0 -7 5 -4 10 3 6 8 10 11 10 2 0 4 -4 4 -10z m555 -70 c-3 -5 -17
-10 -31 -10 -14 0 -22 4 -19 10 3 6 17 10 31 10 14 0 22 -4 19 -10z m-271 -48
c7 -11 -33 -72 -47 -72 -8 0 -9 3 -1 8 15 10 25 42 14 42 -6 0 -10 -7 -10 -15
0 -12 -4 -13 -19 -6 -10 6 -22 7 -26 3 -4 -4 -2 3 6 15 7 12 20 24 29 27 27 7
49 6 54 -2z m208 -26 c8 4 10 3 5 -2 -16 -17 -53 -11 -54 9 -2 18 -1 18 17 2
11 -10 24 -14 32 -9z m-82 -6 c0 -5 -5 -10 -11 -10 -5 0 -7 5 -4 10 3 6 8 10
11 10 2 0 4 -4 4 -10z m-77 -7 c-7 -2 -19 -2 -25 0 -7 3 -2 5 12 5 14 0 19 -2
13 -5z m267 -2 c3 -1 -10 -8 -29 -16 -32 -15 -51 -13 -51 5 0 13 52 20 80 11z
m-230 -11 c-8 -5 -19 -10 -25 -10 -5 0 -3 5 5 10 8 5 20 10 25 10 6 0 3 -5 -5
-10z m162 -41 c5 -4 -3 -6 -18 -6 -16 0 -23 2 -17 4 8 3 11 15 8 31 l-5 27 10
-25 c6 -13 16 -27 22 -31z m-51 24 c13 -17 13 -17 -6 -3 -11 8 -22 16 -24 17
-2 2 0 3 6 3 6 0 17 -8 24 -17z m-293 -13 c30 0 32 -2 32 -35 l0 -35 -77 -2
-78 -2 90 -6 c85 -6 87 -6 30 -10 l-60 -3 55 -6 c48 -5 55 -9 58 -29 8 -52
-51 -73 -61 -22 -4 17 -11 30 -17 30 -6 0 -8 -10 -4 -25 4 -15 2 -25 -5 -25
-6 0 -13 11 -17 25 -8 33 -26 32 -22 -2 2 -15 -2 -28 -9 -30 -9 -3 -13 6 -13
26 0 40 -16 40 -25 1 -4 -17 -13 -30 -22 -30 -11 0 -13 5 -7 18 4 9 10 48 13
87 6 68 7 70 36 76 17 4 39 5 50 3 11 -2 35 -4 53 -4z m273 -18 c4 -4 1 -31
-7 -61 -13 -49 -13 -56 2 -73 22 -23 10 -36 -14 -15 -15 14 -21 15 -38 4 -27
-19 -64 -19 -64 -1 0 11 -9 15 -32 14 -48 -3 -52 -1 -39 14 12 14 11 93 -1
112 -4 6 -4 15 0 19 8 9 184 -3 193 -13z m-201 -42 c0 -5 -2 -10 -4 -10 -3 0
-8 5 -11 10 -3 6 -1 10 4 10 6 0 11 -4 11 -10z m654 -17 c6 -14 8 -14 20 3 28
38 33 -16 6 -56 -9 -13 -12 -13 -24 3 -16 21 -26 22 -26 2 0 -16 -16 -20 -24
-6 -9 14 15 71 29 71 7 0 16 -7 19 -17z m96 2 c0 -8 7 -15 15 -15 8 0 15 7 15
16 0 9 5 14 11 12 11 -4 11 -10 2 -45 -6 -27 -18 -29 -31 -6 -9 15 -11 14 -23
-5 -26 -42 -40 -17 -17 33 12 28 28 33 28 10z m-510 -16 c0 -5 -4 -9 -10 -9
-5 0 -10 7 -10 16 0 8 5 12 10 9 6 -3 10 -10 10 -16z m-424 -121 c-10 -6 -20
-7 -24 -3 -9 8 20 25 31 18 5 -3 2 -10 -7 -15z m794 -132 c0 -2 -7 -6 -15 -10
-8 -3 -15 -1 -15 4 0 6 7 10 15 10 8 0 15 -2 15 -4z m70 -6 c0 -5 -4 -10 -10
-10 -5 0 -10 5 -10 10 0 6 5 10 10 10 6 0 10 -4 10 -10z m-190 -80 c-8 -5 -22
-9 -30 -9 -10 0 -8 3 5 9 27 12 43 12 25 0z m135 -11 c3 -3 -22 -5 -55 -5 -55
1 -68 5 -55 18 6 5 102 -6 110 -13z m68 4 c-7 -2 -19 -2 -25 0 -7 3 -2 5 12 5
14 0 19 -2 13 -5z"/>
<path d="M4937 3633 c18 -2 50 -2 70 0 21 2 7 4 -32 4 -38 0 -55 -2 -38 -4z"/>
<path d="M4928 3603 c7 -3 16 -2 19 1 4 3 -2 6 -13 5 -11 0 -14 -3 -6 -6z"/>
<path d="M5037 3520 c3 -11 9 -17 14 -14 14 8 10 34 -5 34 -9 0 -12 -7 -9 -20z"/>
<path d="M5140 3630 c0 -5 9 -10 20 -10 11 0 20 5 20 10 0 6 -9 10 -20 10 -11
0 -20 -4 -20 -10z"/>
<path d="M5204 3624 c3 -9 6 -41 6 -71 0 -55 0 -56 19 -39 18 16 18 20 5 51
-8 19 -14 44 -14 55 0 11 -5 20 -11 20 -6 0 -8 -7 -5 -16z"/>
<path d="M5240 3626 c0 -1 5 -18 12 -36 10 -30 12 -32 19 -14 14 35 10 54 -11
54 -11 0 -20 -2 -20 -4z"/>
<path d="M5140 3590 c0 -5 9 -10 20 -10 11 0 20 5 20 10 0 6 -9 10 -20 10 -11
0 -20 -4 -20 -10z"/>
<path d="M5140 3544 c0 -9 7 -14 17 -12 25 5 28 28 4 28 -12 0 -21 -6 -21 -16z"/>
<path d="M3378 3863 c12 -2 32 -2 45 0 12 2 2 4 -23 4 -25 0 -35 -2 -22 -4z"/>
<path d="M3530 3850 c-13 -9 -13 -10 0 -10 8 0 22 5 30 10 13 9 13 10 0 10 -8
0 -22 -5 -30 -10z"/>
<path d="M1873 3843 c9 -2 25 -2 35 0 9 3 1 5 -18 5 -19 0 -27 -2 -17 -5z"/>
<path d="M3349 3842 c-4 -12 -138 -15 -753 -18 -412 -2 -751 -6 -754 -9 -3 -3
378 -5 847 -4 469 0 856 -2 859 -5 3 -4 -380 -6 -850 -6 l-855 0 -7 -61 c-3
-34 -3 -65 0 -70 3 -5 367 -9 862 -9 l857 1 3 -96 3 -95 -181 0 c-126 0 -180
-3 -180 -11 0 -8 -23 -10 -72 -7 -40 3 -58 3 -39 1 23 -3 30 -7 22 -12 -7 -5
11 -6 41 -3 29 3 56 10 60 16 5 8 13 8 27 -1 10 -6 21 -10 23 -7 10 9 220 13
243 4 18 -7 25 -6 25 3 0 8 4 7 10 -3 9 -13 11 -13 19 0 6 8 11 12 13 10 2 -3
13 -19 25 -36 14 -21 18 -35 12 -45 -13 -20 -11 -35 3 -21 9 9 14 7 25 -6 10
-13 12 -13 8 -2 -4 11 2 16 22 17 24 1 25 0 8 -7 -18 -8 -17 -9 8 -9 18 -1 26
3 22 10 -5 7 6 8 32 5 29 -5 33 -4 18 4 l-20 10 20 -3 c11 -2 19 -9 17 -15 -1
-7 5 -12 14 -12 8 0 13 -4 10 -9 -3 -5 1 -12 10 -15 15 -6 15 -3 -1 20 -16 24
-16 26 -1 21 9 -4 16 -2 16 4 0 6 5 7 11 3 8 -5 8 -9 -1 -14 -14 -9 -5 -30 13
-30 9 0 9 2 1 8 -9 5 -8 11 2 20 12 10 14 10 14 -3 0 -8 5 -15 11 -15 5 0 7 5
3 11 -4 7 0 9 13 5 24 -8 55 2 47 15 -3 5 24 9 60 9 52 0 66 -3 66 -15 0 -8 5
-15 10 -15 7 0 7 6 1 18 -17 31 2 85 34 101 17 8 33 19 36 24 4 5 28 13 53 17
40 6 48 4 68 -17 12 -12 27 -23 34 -23 7 0 20 -10 28 -22 15 -21 16 -21 16 -3
0 17 2 17 10 5 5 -8 10 -10 10 -5 0 6 -5 17 -10 25 -6 9 -10 11 -10 3 0 -7 -7
-10 -15 -7 -8 4 -12 10 -9 15 3 5 -2 6 -11 3 -10 -4 -14 -2 -10 8 3 8 0 15 -7
15 -7 0 -30 8 -51 17 -25 11 -36 13 -31 5 5 -9 1 -10 -16 -6 -15 4 -33 -1 -49
-12 -15 -11 -38 -17 -56 -16 -16 2 -35 -1 -42 -7 -22 -18 -26 -2 -8 36 10 20
14 44 10 56 -6 20 -13 21 -71 18 -58 -3 -65 -1 -60 14 6 23 -9 32 -31 18 -15
-9 -14 -10 6 -4 16 4 21 3 17 -5 -4 -6 -16 -11 -27 -11 -11 0 -17 -4 -14 -10
4 -7 -2 -7 -18 -1 -31 12 -35 8 -31 -29 2 -17 -1 -30 -6 -30 -6 0 -10 8 -10
18 -1 9 -9 27 -19 39 -19 23 -20 23 -58 5 -25 -11 -38 -23 -36 -32 3 -8 -4 -3
-14 13 -10 15 -20 27 -23 27 -3 0 -20 -13 -38 -29 -30 -28 -44 -71 -22 -71 6
0 10 -4 10 -10 0 -5 -6 -10 -14 -10 -12 0 -14 30 -16 162 0 115 -4 165 -13
170 -7 4 -53 8 -104 8 -64 0 -93 4 -95 13 -4 9 -6 9 -9 -1z m-729 -82 c0 -18
-34 -29 -55 -17 -19 11 -18 12 10 18 44 10 45 10 45 -1z m111 3 c0 -5 2 -23 3
-41 3 -26 0 -33 -18 -37 -36 -8 -67 -2 -61 13 3 7 5 27 5 43 0 27 3 29 35 29
19 0 35 -3 36 -7z m119 -22 c0 -16 -3 -31 -7 -34 -5 -2 -2 -2 5 -1 6 2 12 -3
12 -11 0 -8 -9 -15 -20 -15 -11 0 -20 5 -20 10 0 6 -8 5 -20 -2 -10 -7 -23 -8
-27 -4 -4 5 -3 10 2 13 6 2 9 19 7 38 -4 34 -3 35 32 35 33 0 36 -2 36 -29z
m-240 -53 c0 -13 -53 -6 -57 8 -2 7 8 9 27 6 16 -2 30 -9 30 -14z m1050 -134
c0 -8 8 -14 18 -14 16 -1 16 -2 -1 -14 -12 -9 -14 -16 -7 -21 6 -4 18 10 28
34 17 42 32 53 32 25 0 -31 -32 -84 -51 -84 -16 0 -19 -8 -19 -45 0 -32 -4
-45 -14 -45 -10 0 -13 11 -12 35 1 29 -2 34 -16 29 -22 -7 -22 4 -3 30 19 25
19 36 0 36 -8 0 -15 5 -15 10 0 6 6 10 14 10 7 0 16 9 19 21 6 23 27 17 27 -7z
m124 -17 c19 -50 19 -57 6 -57 -12 0 -26 26 -35 68 -10 47 9 40 29 -11z m163
32 c51 1 83 -2 83 -8 0 -5 -12 -11 -27 -13 -27 -3 -28 -5 -28 -63 l0 -60 33
-3 c64 -6 30 -22 -49 -22 -51 0 -78 4 -74 10 3 6 20 10 36 10 l30 0 -3 63 c-3
57 -5 62 -27 65 -13 2 -28 -1 -34 -7 -12 -12 -60 16 -51 30 3 5 11 6 17 2 6
-4 49 -6 94 -4z m-83 -45 c15 -6 23 -34 10 -34 -13 0 -44 21 -44 30 0 11 11
13 34 4z m57 -8 c5 3 9 0 9 -5 0 -6 -6 -11 -12 -12 -10 0 -10 -2 0 -6 14 -5
17 -53 3 -53 -5 0 -8 8 -6 18 1 9 0 22 -4 27 -3 6 -6 19 -8 30 -1 11 1 14 3 7
3 -6 10 -10 15 -6z m95 -11 c-5 -18 -2 -27 10 -32 9 -3 19 -2 23 4 3 5 17 10
30 10 l24 2 -21 -19 c-11 -10 -22 -25 -25 -32 -2 -7 -8 -9 -13 -5 -5 4 -2 12
6 17 11 7 8 9 -10 8 -14 -1 -28 -6 -31 -11 -8 -11 -10 64 -2 76 10 16 15 6 9
-18z m-266 1 c0 -2 -7 -22 -15 -45 -14 -39 -13 -42 3 -39 10 2 17 13 17 26 1
34 19 28 34 -12 14 -37 9 -58 -10 -39 -7 7 -24 7 -54 0 -44 -10 -71 -3 -48 11
7 4 22 29 33 55 12 26 25 47 30 47 6 0 10 -2 10 -4z m84 -51 c-9 -14 -18 -25
-20 -25 -7 0 10 35 20 42 17 12 17 9 0 -17z m56 4 c0 -15 -39 -69 -51 -69 -15
0 -10 19 13 50 22 31 38 38 38 19z m20 -89 c0 -5 -5 -10 -11 -10 -5 0 -7 5 -4
10 3 6 8 10 11 10 2 0 4 -4 4 -10z"/>
<path d="M3820 3830 c0 -5 5 -10 10 -10 6 0 10 5 10 10 0 6 -4 10 -10 10 -5 0
-10 -4 -10 -10z"/>
<path d="M4792 3786 c7 -8 15 -12 17 -11 5 6 -10 25 -20 25 -5 0 -4 -6 3 -14z"/>
<path d="M4680 3778 c0 -9 5 -20 10 -23 13 -8 13 5 0 25 -8 13 -10 13 -10 -2z"/>
<path d="M4778 3753 c7 -3 16 -2 19 1 4 3 -2 6 -13 5 -11 0 -14 -3 -6 -6z"/>
<path d="M4036 3691 c-3 -5 1 -11 9 -15 9 -3 15 0 15 9 0 16 -16 20 -24 6z"/>
<path d="M4033 3653 c-7 -2 -13 -14 -12 -26 0 -12 3 -16 6 -9 4 10 8 10 19 1
11 -9 14 -8 14 4 0 11 7 14 23 10 18 -4 16 -2 -7 11 -15 9 -29 16 -30 15 0 0
-7 -3 -13 -6z"/>
<path d="M1833 3560 c0 -47 2 -66 4 -42 2 23 2 61 0 85 -2 23 -4 4 -4 -43z"/>
<path d="M3610 3620 c6 -11 13 -20 16 -20 2 0 0 9 -6 20 -6 11 -13 20 -16 20
-2 0 0 -9 6 -20z"/>
<path d="M3777 3623 c9 -36 28 -46 29 -15 1 15 -1 21 -3 14 -4 -10 -9 -8 -19
5 -12 17 -13 16 -7 -4z"/>
<path d="M3820 3636 c0 -2 8 -10 18 -17 15 -13 16 -12 3 4 -13 16 -21 21 -21
13z"/>
<path d="M10 3620 c10 -6 11 -10 3 -10 -7 0 -13 -11 -13 -25 0 -18 5 -25 20
-25 17 0 20 -7 20 -39 0 -22 -9 -61 -20 -87 -15 -34 -20 -63 -17 -103 3 -43 5
-51 11 -33 5 12 12 22 16 22 7 0 30 66 29 84 0 5 5 12 12 16 17 11 19 172 1
178 -7 2 -19 10 -26 18 -8 8 -23 14 -33 14 -15 0 -16 -2 -3 -10z"/>
<path d="M3690 3615 c0 -8 4 -15 10 -15 5 0 7 7 4 15 -4 8 -8 15 -10 15 -2 0
-4 -7 -4 -15z"/>
<path d="M3177 3614 c-4 -4 -7 -27 -7 -51 0 -36 3 -43 20 -43 12 0 20 7 20 18
0 15 2 15 11 2 8 -11 12 -12 16 -2 8 21 25 13 18 -9 -5 -15 -3 -20 6 -17 18 6
24 69 7 79 -10 7 -10 9 2 9 12 1 12 2 -2 10 -21 13 -56 1 -36 -11 10 -7 10 -9
1 -9 -7 0 -13 -4 -13 -10 0 -5 6 -7 14 -4 8 3 17 1 21 -5 4 -7 -4 -11 -19 -11
-19 0 -25 6 -28 27 -3 26 -18 39 -31 27z"/>
<path d="M3988 3613 c7 -3 16 -2 19 1 4 3 -2 6 -13 5 -11 0 -14 -3 -6 -6z"/>
<path d="M2142 3565 c0 -27 3 -40 5 -27 3 16 11 22 29 22 16 0 28 -8 34 -22 7
-19 9 -13 9 26 1 27 -2 46 -6 42 -5 -4 -8 -13 -8 -19 0 -7 -10 -13 -23 -15
-16 -2 -25 3 -31 20 -8 19 -10 13 -9 -27z"/>
<path d="M2260 3566 c0 -25 5 -46 10 -46 6 0 10 6 10 14 0 8 6 17 13 19 10 4
10 6 0 6 -7 1 -13 10 -13 21 0 14 7 20 21 20 18 0 20 -4 15 -25 -5 -19 -3 -23
9 -18 9 3 15 15 13 27 -2 16 -11 22 -40 24 l-38 3 0 -45z"/>
<path d="M2699 3604 c0 -5 -2 -23 -4 -41 -4 -27 -2 -30 15 -26 12 3 20 0 20
-6 0 -9 3 -9 13 0 11 10 12 25 8 74 -1 6 -5 4 -10 -4 -8 -12 -12 -12 -25 -2
-9 8 -16 10 -17 5z m35 -39 c-4 -8 -10 -15 -15 -15 -5 0 -9 7 -9 15 0 8 7 15
15 15 9 0 12 -6 9 -15z"/>
<path d="M2830 3600 c20 -13 33 -13 25 0 -3 6 -14 10 -23 10 -15 0 -15 -2 -2
-10z"/>
<path d="M2973 3603 c48 -5 51 -35 5 -63 -29 -17 -30 -20 -11 -20 22 0 63 42
63 65 0 17 -24 25 -63 23 -30 -1 -29 -2 6 -5z"/>
<path d="M3067 3603 c-4 -3 -7 -15 -7 -25 0 -14 7 -18 32 -16 25 2 33 -1 36
-16 3 -16 -1 -18 -27 -14 -17 2 -31 1 -31 -4 0 -12 68 -10 75 2 14 22 -6 50
-36 50 -39 0 -37 18 4 23 l32 4 -36 1 c-20 1 -39 -1 -42 -5z"/>
<path d="M2887 3569 c-3 -11 -19 -25 -36 -32 -17 -6 -31 -15 -31 -19 0 -28 89
36 90 65 0 16 -18 6 -23 -14z"/>
<path d="M2501 3564 c0 -11 3 -14 6 -6 3 7 2 16 -1 19 -3 4 -6 -2 -5 -13z"/>
<path d="M2572 3550 c0 -19 2 -27 5 -17 2 9 2 25 0 35 -3 9 -5 1 -5 -18z"/>
<path d="M2622 3555 c0 -16 2 -22 5 -12 2 9 2 23 0 30 -3 6 -5 -1 -5 -18z"/>
<path d="M2810 3576 c0 -2 7 -6 15 -10 8 -3 15 -1 15 4 0 6 -7 10 -15 10 -8 0
-15 -2 -15 -4z"/>
<path d="M2434 3545 c4 -24 16 -30 16 -7 0 12 -4 22 -9 22 -5 0 -8 -7 -7 -15z"/>
<path d="M4060 3535 c0 -8 2 -15 4 -15 2 0 6 7 10 15 3 8 1 15 -4 15 -6 0 -10
-7 -10 -15z"/>
<path d="M4255 3540 c4 -6 11 -8 16 -5 14 9 11 15 -7 15 -8 0 -12 -5 -9 -10z"/>
<path d="M1 3504 c0 -11 3 -14 6 -6 3 7 2 16 -1 19 -3 4 -6 -2 -5 -13z"/>
<path d="M4800 3500 c0 -5 5 -10 11 -10 5 0 7 5 4 10 -3 6 -8 10 -11 10 -2 0
-4 -4 -4 -10z"/>
<path d="M3158 3463 c7 -3 16 -2 19 1 4 3 -2 6 -13 5 -11 0 -14 -3 -6 -6z"/>
<path d="M4830 3460 c0 -5 5 -10 10 -10 6 0 10 5 10 10 0 6 -4 10 -10 10 -5 0
-10 -4 -10 -10z"/>
<path d="M1865 3450 c4 -6 11 -8 16 -5 14 9 11 15 -7 15 -8 0 -12 -5 -9 -10z"/>
<path d="M1943 3453 c26 -2 68 -2 95 0 26 2 4 3 -48 3 -52 0 -74 -1 -47 -3z"/>
<path d="M2178 3453 c12 -2 32 -2 45 0 12 2 2 4 -23 4 -25 0 -35 -2 -22 -4z"/>
<path d="M2418 3453 c6 -2 18 -2 25 0 6 3 1 5 -13 5 -14 0 -19 -2 -12 -5z"/>
<path d="M2488 3453 c18 -2 45 -2 60 0 15 2 0 4 -33 4 -33 0 -45 -2 -27 -4z"/>
<path d="M2928 3453 c23 -2 59 -2 80 0 20 2 1 4 -43 4 -44 0 -61 -2 -37 -4z"/>
<path d="M4985 3418 c-4 -10 -10 -16 -14 -14 -3 2 -15 -2 -25 -9 -18 -13 -18
-15 -1 -32 17 -16 17 -16 11 4 -6 19 -3 21 28 21 19 0 42 5 53 12 16 10 15 11
-9 6 -20 -5 -28 -2 -31 11 -4 17 -4 17 -12 1z"/>
<path d="M5206 3414 c-5 -14 -4 -15 9 -4 17 14 19 20 6 20 -5 0 -12 -7 -15
-16z"/>
<path d="M3068 3413 c12 -2 30 -2 40 0 9 3 -1 5 -23 4 -22 0 -30 -2 -17 -4z"/>
<path d="M4340 3414 c0 -5 11 -17 24 -26 18 -13 23 -14 23 -2 0 8 -3 12 -5 9
-3 -3 -14 2 -24 12 -10 9 -18 12 -18 7z"/>
<path d="M5070 3406 c0 -22 17 -28 50 -21 39 9 39 26 0 19 -19 -4 -30 -2 -30
5 0 6 -4 11 -10 11 -5 0 -10 -6 -10 -14z"/>
<path d="M5269 3399 c-10 -6 -10 -9 -1 -9 6 0 12 -9 12 -19 0 -14 5 -18 20
-14 11 3 26 0 34 -6 18 -15 46 -3 46 19 0 18 -36 38 -47 27 -3 -3 -15 -2 -27
3 -13 5 -29 4 -37 -1z"/>
<path d="M4420 3390 c-8 -5 -11 -12 -7 -17 5 -4 11 -3 15 3 4 6 14 14 22 17
13 5 13 5 0 6 -8 0 -22 -3 -30 -9z"/>
<path d="M5398 3393 c7 -3 16 -2 19 1 4 3 -2 6 -13 5 -11 0 -14 -3 -6 -6z"/>
<path d="M5388 3360 c-7 -24 -3 -38 8 -28 3 4 4 17 2 30 l-3 23 -7 -25z"/>
<path d="M4018 3363 c7 -3 16 -2 19 1 4 3 -2 6 -13 5 -11 0 -14 -3 -6 -6z"/>
<path d="M4540 3359 c-13 -9 -13 -10 0 -6 8 2 23 0 34 -5 12 -7 22 -6 30 3 8
9 7 11 -6 6 -10 -3 -20 -2 -23 3 -8 13 -16 12 -35 -1z"/>
<path d="M4461 3310 c-6 -28 -11 -53 -11 -55 0 -6 192 -4 214 2 17 5 18 6 3
15 -11 6 -17 23 -18 46 -1 33 -2 34 -9 12 -5 -17 -8 -19 -9 -7 -1 17 -21 25
-21 8 0 -4 -17 -11 -37 -14 -21 -3 -49 -9 -61 -13 -21 -6 -23 -4 -20 21 6 51
-20 38 -31 -15z"/>
<path d="M3753 3335 c0 -7 6 -11 14 -8 7 3 13 6 13 8 0 2 -6 5 -13 8 -8 3 -14
-1 -14 -8z"/>
<path d="M4335 3340 c3 -5 8 -10 11 -10 2 0 4 5 4 10 0 6 -5 10 -11 10 -5 0
-7 -4 -4 -10z"/>
<path d="M3673 3333 c9 -2 23 -2 30 0 6 3 -1 5 -18 5 -16 0 -22 -2 -12 -5z"/>
<path d="M3870 3330 c-13 -8 -13 -10 2 -10 9 0 20 5 23 10 8 13 -5 13 -25 0z"/>
<path d="M4000 3326 c0 -2 9 -6 20 -9 11 -3 18 -1 14 4 -5 9 -34 13 -34 5z"/>
<path d="M4247 3314 c-14 -14 8 -34 38 -34 28 0 45 13 45 36 0 6 -76 5 -83 -2z"/>
<path d="M4990 3306 c0 -9 7 -16 16 -16 9 0 14 5 12 12 -6 18 -28 21 -28 4z"/>
<path d="M5036 3312 c11 -7 11 -47 -1 -108 l-6 -34 46 0 c45 0 46 1 43 28 -2
19 -9 27 -22 27 -24 0 -31 18 -17 42 9 16 10 16 19 -6 5 -14 12 -20 15 -14 3
5 -1 20 -9 31 -14 20 -17 21 -31 7 -19 -20 -28 -13 -15 12 9 16 7 19 -11 20
-12 1 -17 -1 -11 -5z"/>
<path d="M5106 3307 c3 -10 9 -15 12 -12 3 3 0 11 -7 18 -10 9 -11 8 -5 -6z"/>
<path d="M1613 3261 c-18 -21 -54 -49 -80 -62 -56 -27 -72 -44 -73 -80 0 -18
-8 -29 -27 -38 -22 -10 -24 -14 -12 -22 10 -6 6 -9 -16 -9 -22 0 -44 -12 -75
-41 -26 -23 -63 -45 -87 -52 -41 -11 -58 -26 -30 -28 6 0 24 -2 40 -4 18 -2
25 0 21 7 -4 7 -2 8 5 4 6 -4 19 -2 28 6 12 9 15 9 9 1 -4 -7 -3 -13 2 -13 6
0 7 -14 2 -36 -10 -43 -4 -65 16 -57 8 3 14 0 14 -6 0 -19 93 -9 108 12 7 9
17 17 21 17 5 0 27 17 48 38 54 50 73 64 73 55 0 -4 10 7 21 25 12 17 24 32
28 32 4 0 21 12 38 26 18 14 33 24 36 22 8 -7 37 25 37 42 0 10 7 23 15 30 8
7 12 16 9 21 -3 5 0 9 6 9 7 0 4 14 -9 36 -12 19 -21 41 -21 49 0 12 -4 12
-27 -1 -41 -21 -50 -18 -57 21 -9 45 -23 44 -63 -4z m51 -15 c-3 -9 -10 -16
-15 -16 -5 0 -4 9 3 20 14 22 21 20 12 -4z m-142 -128 c-2 -10 -6 -18 -7 -18
-1 0 -5 8 -7 18 -3 11 0 19 7 19 7 0 10 -8 7 -19z"/>
<path d="M5550 3290 c20 -13 43 -13 35 0 -3 6 -16 10 -28 10 -18 0 -19 -2 -7
-10z"/>
<path d="M4039 3263 c-12 -16 -12 -17 1 -7 8 6 22 14 30 17 13 5 12 6 -1 6 -9
1 -23 -7 -30 -16z"/>
<path d="M4896 3264 c-11 -8 -34 -15 -50 -15 l-31 -1 30 -7 c17 -4 33 -3 36 1
3 5 13 6 21 3 18 -7 35 12 22 25 -5 5 -18 2 -28 -6z"/>
<path d="M4418 3253 c-2 -5 -1 -26 3 -48 l6 -40 2 48 c1 44 -3 57 -11 40z"/>
<path d="M3832 3231 c-11 -6 -10 -10 4 -15 9 -3 19 -4 22 -1 3 3 0 5 -7 5 -7
0 -9 5 -6 10 7 12 4 12 -13 1z"/>
<path d="M5138 3223 c7 -3 16 -2 19 1 4 3 -2 6 -13 5 -11 0 -14 -3 -6 -6z"/>
<path d="M4379 3208 c7 -9 9 -23 5 -30 -6 -10 -4 -11 7 0 11 10 10 15 -6 30
-17 15 -18 15 -6 0z"/>
<path d="M5190 3210 c-8 -5 -10 -10 -5 -10 6 0 17 5 25 10 8 5 11 10 5 10 -5
0 -17 -5 -25 -10z"/>
<path d="M1360 3206 c0 -2 8 -10 18 -17 15 -13 16 -12 3 4 -13 16 -21 21 -21
13z"/>
<path d="M3818 3193 c7 -3 16 -2 19 1 4 3 -2 6 -13 5 -11 0 -14 -3 -6 -6z"/>
<path d="M730 3179 c0 -5 5 -7 10 -4 6 3 10 8 10 11 0 2 -4 4 -10 4 -5 0 -10
-5 -10 -11z"/>
<path d="M4447 3170 c-14 -17 -15 -20 -2 -20 9 0 18 7 22 15 9 24 -1 27 -20 5z"/>
<path d="M317 3173 c24 -2 62 -2 86 0 23 2 4 4 -43 4 -47 0 -66 -2 -43 -4z"/>
<path d="M2606 3165 c-12 -12 -16 -36 -16 -91 0 -48 -4 -73 -10 -69 -5 3 -10
30 -10 60 0 64 -7 86 -26 78 -8 -3 -14 1 -14 8 0 19 -13 1 -17 -23 -2 -12 -9
-26 -16 -30 -9 -6 -9 -8 1 -8 8 0 12 -19 12 -62 1 -40 6 -70 15 -82 8 -11 15
-14 15 -8 0 7 5 12 11 12 6 0 9 -7 5 -15 -6 -18 12 -16 33 4 13 11 16 11 22
-5 4 -11 8 -14 8 -8 1 6 21 11 47 11 34 0 51 5 61 18 12 18 14 18 30 2 12 -11
13 -17 5 -17 -7 0 -10 -5 -6 -11 4 -8 9 -7 15 2 5 9 32 14 88 14 44 0 74 -3
68 -7 -8 -5 -9 -8 -1 -8 7 0 19 11 28 25 21 32 23 180 2 201 -18 17 -38 18
-55 2 -10 -9 -12 -9 -7 -1 3 6 2 14 -4 18 -5 3 -10 3 -10 -2 0 -4 -10 -8 -22
-9 -60 -3 -106 -10 -102 -15 2 -4 -4 -13 -13 -20 -15 -12 -16 -12 -10 4 4 12
3 16 -4 11 -6 -4 -14 -3 -18 2 -3 5 -16 -1 -28 -13 -12 -13 -19 -23 -15 -23 4
0 8 -26 10 -57 3 -75 -14 -51 -22 29 -4 44 -2 56 8 52 7 -3 13 2 13 10 0 8 -4
13 -9 10 -5 -3 -17 1 -27 10 -17 16 -20 16 -35 1z m25 -37 c0 -13 1 -49 2 -80
l2 -58 33 0 32 0 0 65 c0 37 4 65 10 65 6 0 10 -32 10 -75 0 -87 -1 -88 -115
-83 l-70 3 -3 78 c-2 48 1 77 8 77 6 0 10 -27 10 -65 l0 -65 30 0 30 0 0 80
c0 47 4 80 10 80 6 0 10 -10 11 -22z m317 -76 l3 -83 -93 3 -93 3 -3 68 c-4
93 2 98 102 95 l81 -3 3 -83z m-271 -108 c-3 -3 -12 -4 -19 -1 -8 3 -5 6 6 6
11 1 17 -2 13 -5z"/>
<path d="M2790 3050 l0 -60 65 0 65 0 0 60 0 60 -65 0 -65 0 0 -60z m90 23 c0
-15 1 -15 13 1 12 16 13 14 9 -18 -2 -20 -9 -36 -16 -37 -6 0 -26 -2 -43 -3
-31 -3 -33 -2 -33 28 0 40 6 46 42 46 20 0 28 -5 28 -17z"/>
<path d="M5002 3135 c-1 -46 0 -48 13 -31 8 11 15 25 15 30 0 6 -4 5 -9 -3 -7
-11 -11 -6 -14 20 -3 26 -4 23 -5 -16z"/>
<path d="M5304 3080 c0 -58 1 -81 3 -52 2 28 2 76 0 105 -2 28 -3 5 -3 -53z"/>
<path d="M1362 3154 c-7 -8 -8 -14 -3 -14 10 0 25 19 20 25 -2 1 -10 -3 -17
-11z"/>
<path d="M3712 3148 c16 -10 45 -10 51 0 3 4 -10 7 -29 8 -21 0 -30 -3 -22 -8z"/>
<path d="M5062 3140 c0 -14 2 -19 5 -12 2 6 2 18 0 25 -3 6 -5 1 -5 -13z"/>
<path d="M20 3125 c0 -8 4 -15 10 -15 5 0 7 7 4 15 -4 8 -8 15 -10 15 -2 0 -4
-7 -4 -15z"/>
<path d="M770 3093 l0 -48 -157 5 c-218 7 -210 9 -215 -52 -7 -66 -38 -98
-102 -105 -44 -5 -46 -5 -46 21 0 22 5 26 28 26 l27 1 -33 14 c-38 17 -44 55
-11 78 18 13 14 15 -53 19 -40 2 -86 1 -103 -3 -16 -4 -22 -7 -13 -8 42 -3 62
-81 30 -120 -22 -28 -91 -45 -99 -25 -11 29 -23 0 -23 -57 l0 -59 398 2 397 3
0 165 c0 171 -1 190 -16 190 -5 0 -9 -21 -9 -47z m-3 -125 c-3 -8 -6 -5 -6 6
-1 11 2 17 5 13 3 -3 4 -12 1 -19z m-111 -38 c5 1 12 -9 16 -22 6 -22 10 -19
12 9 2 23 20 9 23 -17 2 -24 0 -26 -50 -28 -29 -1 -73 -4 -99 -8 l-48 -6 4 31
c2 18 7 35 10 39 11 10 110 18 117 9 3 -5 10 -8 15 -7z m105 -32 c-3 -21 -6
-26 -9 -15 -3 17 3 47 11 47 2 0 1 -15 -2 -32z m-263 -13 c0 -14 -4 -25 -9
-25 -5 0 -9 14 -9 31 0 16 4 28 9 25 5 -3 9 -17 9 -31z"/>
<path d="M2486 3123 c-6 -14 -5 -15 5 -6 7 7 10 15 7 18 -3 3 -9 -2 -12 -12z"/>
<path d="M93 3113 c9 -2 25 -2 35 0 9 3 1 5 -18 5 -19 0 -27 -2 -17 -5z"/>
<path d="M1365 3104 c11 -8 19 -18 18 -22 -1 -4 1 -9 4 -12 4 -3 3 0 0 6 -4 7
3 14 15 17 29 8 20 16 -22 21 -32 4 -33 3 -15 -10z"/>
<path d="M5041 3113 c-1 -6 -8 -19 -17 -27 -14 -15 -14 -16 1 -16 18 0 30 23
22 42 -4 9 -6 9 -6 1z"/>
<path d="M5900 3101 l-24 -19 24 -21 c35 -29 40 -26 40 19 0 45 -5 47 -40 21z"/>
<path d="M201 3094 c0 -11 3 -14 6 -6 3 7 2 16 -1 19 -3 4 -6 -2 -5 -13z"/>
<path d="M3570 3099 c0 -5 5 -7 10 -4 6 3 10 8 10 11 0 2 -4 4 -10 4 -5 0 -10
-5 -10 -11z"/>
<path d="M4648 3103 c7 -3 16 -2 19 1 4 3 -2 6 -13 5 -11 0 -14 -3 -6 -6z"/>
<path d="M1249 3063 c-13 -16 -12 -17 4 -4 9 7 17 15 17 17 0 8 -8 3 -21 -13z"/>
<path d="M4319 3063 c-13 -16 -12 -17 4 -4 16 13 21 21 13 21 -2 0 -10 -8 -17
-17z"/>
<path d="M3508 3063 c7 -3 16 -2 19 1 4 3 -2 6 -13 5 -11 0 -14 -3 -6 -6z"/>
<path d="M5041 3004 c0 -11 3 -14 6 -6 3 7 2 16 -1 19 -3 4 -6 -2 -5 -13z"/>
<path d="M300 3000 c0 -5 6 -10 14 -10 8 0 18 5 21 10 3 6 -3 10 -14 10 -12 0
-21 -4 -21 -10z"/>
<path d="M62 2966 c-7 -16 -8 -26 -1 -26 12 0 22 25 17 41 -2 6 -9 0 -16 -15z"/>
<path d="M5270 2980 c-9 -6 -10 -10 -3 -10 6 0 15 5 18 10 8 12 4 12 -15 0z"/>
<path d="M3565 2960 c-10 -11 -16 -20 -13 -20 3 0 15 9 28 20 13 11 19 20 13
20 -5 0 -18 -9 -28 -20z"/>
<path d="M3075 2950 c-3 -6 1 -7 9 -4 18 7 21 14 7 14 -6 0 -13 -4 -16 -10z"/>
<path d="M3895 2950 c3 -5 8 -10 11 -10 2 0 4 5 4 10 0 6 -5 10 -11 10 -5 0
-7 -4 -4 -10z"/>
<path d="M3481 2913 c-1 -6 -4 -20 -7 -30 -5 -17 -5 -17 6 0 6 10 9 23 6 30
-3 9 -5 9 -5 0z"/>
<path d="M5125 2901 c-3 -5 -2 -12 3 -15 5 -3 9 1 9 9 0 17 -3 19 -12 6z"/>
<path d="M2623 2883 c9 -2 23 -2 30 0 6 3 -1 5 -18 5 -16 0 -22 -2 -12 -5z"/>
<path d="M4821 2874 c0 -11 3 -14 6 -6 3 7 2 16 -1 19 -3 4 -6 -2 -5 -13z"/>
<path d="M5138 2855 c-26 -19 -52 -45 -59 -57 -9 -16 -2 -12 22 12 19 19 48
45 64 57 17 12 28 22 25 22 -3 0 -26 -15 -52 -34z"/>
<path d="M2885 2860 c-3 -6 1 -7 9 -4 18 7 21 14 7 14 -6 0 -13 -4 -16 -10z"/>
<path d="M4872 2818 c-5 -18 -13 -41 -17 -50 -6 -16 -1 -18 41 -18 45 0 49 2
49 24 0 13 -3 22 -7 19 -5 -2 -8 0 -8 5 0 6 -8 9 -17 8 -11 0 -18 6 -18 16 0
32 -14 30 -23 -4z"/>
<path d="M1818 2820 c-9 -10 -17 -34 -17 -52 1 -18 -1 -45 -4 -60 -3 -18 0
-25 9 -21 7 3 15 -7 19 -25 5 -26 11 -30 52 -36 73 -10 138 -7 152 7 11 10 13
9 8 -4 -7 -21 26 -18 52 5 23 21 76 18 75 -4 -1 -15 8 -16 92 -8 7 1 12 28 13
67 1 36 3 85 4 107 l2 42 -220 0 c-202 0 -221 -1 -237 -18z m127 -30 l62 0 7
-46 c3 -26 6 -60 6 -75 0 -29 0 -29 -64 -29 -56 0 -66 3 -71 20 -3 11 -4 24 0
29 3 5 1 12 -5 16 -6 4 -10 -8 -10 -29 0 -25 -4 -36 -15 -36 -11 0 -15 11 -15
36 0 19 -4 33 -9 29 -22 -13 -18 14 4 35 30 28 32 40 5 40 -24 0 -25 4 -2 30
l17 21 14 -21 c11 -17 24 -20 76 -20z m75 20 c0 -6 -30 -10 -70 -10 -40 0 -70
4 -70 10 0 6 30 10 70 10 40 0 70 -4 70 -10z m228 -77 l-3 -88 -32 -3 c-19 -2
-33 1 -33 7 0 6 11 11 25 11 23 0 25 4 25 43 l0 43 -35 -4 c-29 -3 -35 -8 -35
-28 0 -15 6 -24 15 -24 8 0 15 9 15 20 0 11 5 20 10 20 6 0 10 -14 10 -30 l0
-31 -57 3 c-55 3 -58 4 -61 31 -2 19 1 27 12 27 9 0 16 -9 16 -20 0 -11 5 -20
10 -20 6 0 10 11 10 25 0 21 -5 25 -30 25 -16 0 -30 5 -30 10 0 6 6 10 14 10
9 0 14 9 13 20 -1 22 -26 28 -29 8 0 -7 -2 -42 -2 -77 -1 -42 -5 -66 -13 -68
-10 -4 -13 17 -13 80 0 46 3 87 7 90 3 4 49 7 100 7 l94 0 -3 -87z"/>
<path d="M1877 2757 c-3 -9 -2 -19 4 -23 15 -9 18 -2 9 20 -6 17 -7 18 -13 3z"/>
<path d="M1938 2763 c12 -2 30 -2 40 0 9 3 -1 5 -23 4 -22 0 -30 -2 -17 -4z"/>
<path d="M1918 2703 c7 -3 16 -2 19 1 4 3 -2 6 -13 5 -11 0 -14 -3 -6 -6z"/>
<path d="M1968 2703 c6 -2 18 -2 25 0 6 3 1 5 -13 5 -14 0 -19 -2 -12 -5z"/>
<path d="M1910 2670 c0 -5 7 -10 15 -10 8 0 15 5 15 10 0 6 -7 10 -15 10 -8 0
-15 -4 -15 -10z"/>
<path d="M1970 2670 c0 -5 7 -10 16 -10 8 0 12 5 9 10 -3 6 -10 10 -16 10 -5
0 -9 -4 -9 -10z"/>
<path d="M2132 2780 c7 -11 16 -20 19 -20 3 0 14 9 24 20 18 20 17 20 -19 20
-34 0 -35 -1 -24 -20z"/>
<path d="M2197 2780 c-4 -15 0 -20 14 -20 12 0 19 7 19 20 0 11 -6 20 -14 20
-7 0 -16 -9 -19 -20z"/>
<path d="M5168 2829 c-26 -15 -27 -196 -2 -206 11 -4 22 1 31 13 16 22 68 21
90 -2 21 -20 59 -17 81 7 17 17 20 18 25 5 5 -13 25 -16 101 -16 112 0 116 4
116 97 0 66 -16 98 -43 87 -14 -5 -17 -19 -17 -70 0 -49 -3 -64 -15 -64 -11 0
-15 18 -17 78 -3 75 -4 77 -28 77 -24 0 -25 -2 -28 -77 -3 -91 -22 -106 -22
-18 0 48 -4 61 -19 70 -14 7 -22 7 -26 -1 -5 -7 -14 -3 -26 10 -17 18 -31 21
-102 21 -45 0 -90 -5 -99 -11z m333 -11 c1 -7 3 -20 4 -28 1 -8 3 -39 4 -67 1
-49 3 -53 26 -53 23 0 24 4 27 62 2 38 8 63 16 66 9 3 12 -16 12 -71 l0 -75
-57 -4 c-32 -1 -75 -2 -95 0 l-38 3 0 75 c0 43 4 74 10 74 6 0 10 -28 10 -65
l0 -65 30 0 30 0 0 80 c0 47 4 80 10 80 6 0 11 -6 11 -12z m-141 -88 l0 -90
-35 0 c-19 0 -35 5 -35 10 0 6 11 10 25 10 23 0 25 4 25 43 l0 43 -34 -4 c-25
-3 -33 -8 -31 -20 2 -10 4 -20 4 -24 2 -18 21 -6 21 12 0 11 5 20 10 20 6 0
10 -13 10 -30 0 -30 -1 -30 -54 -30 -46 0 -56 3 -61 20 -7 21 0 40 16 40 5 0
9 -9 9 -20 0 -11 5 -20 10 -20 6 0 10 11 10 25 0 21 -5 25 -30 25 -29 0 -30
-1 -30 -51 0 -35 -4 -49 -12 -47 -13 5 -24 137 -14 164 4 11 27 14 101 14 l95
0 0 -90z"/>
<path d="M5190 2780 c0 -11 6 -20 14 -20 9 0 14 9 13 20 -1 11 -7 20 -14 20
-7 0 -13 -9 -13 -20z"/>
<path d="M5242 2780 c7 -11 16 -20 19 -20 3 0 14 9 24 20 18 20 17 20 -19 20
-34 0 -35 -1 -24 -20z"/>
<path d="M5307 2780 c-4 -15 0 -20 14 -20 12 0 19 7 19 20 0 11 -6 20 -14 20
-7 0 -16 -9 -19 -20z"/>
<path d="M4771 2761 c-8 -5 -9 -11 -3 -15 5 -3 12 1 16 9 6 17 6 18 -13 6z"/>
<path d="M1396 2734 c-11 -8 -16 -14 -10 -14 13 0 39 18 34 24 -3 2 -14 -2
-24 -10z"/>
<path d="M1445 2733 c-50 -19 -130 -29 -121 -15 9 16 -33 26 -49 12 -12 -10
-18 -10 -30 0 -16 13 -55 4 -55 -13 0 -7 -7 -25 -16 -42 -11 -22 -12 -35 -5
-50 6 -11 12 -40 13 -65 l3 -45 162 -1 c140 0 165 -3 182 -18 13 -12 31 -16
57 -14 32 2 42 9 53 32 11 24 11 33 1 49 -8 14 -10 41 -5 88 6 59 5 70 -10 75
-13 5 -14 9 -3 15 9 6 9 9 1 9 -6 0 -15 -4 -18 -10 -9 -14 -62 -12 -68 3 -4
10 -6 10 -6 0 -1 -7 -13 -13 -27 -13 -14 0 -23 4 -19 10 8 12 9 13 -40 -7z
m-215 -28 c0 -21 37 -19 49 3 9 15 12 15 20 2 6 -9 25 -15 47 -15 57 0 55 -23
-2 -27 -30 -2 -49 -8 -52 -17 -4 -11 3 -13 29 -9 19 3 40 3 47 1 19 -7 14 -23
-8 -23 -16 0 -20 -7 -20 -30 0 -25 4 -30 25 -30 16 0 25 -6 25 -15 0 -12 -15
-15 -76 -15 -56 0 -75 3 -72 13 3 6 19 13 36 15 28 3 32 7 32 33 0 16 -5 29
-11 29 -15 0 -66 -56 -74 -81 -11 -33 -25 -10 -25 41 0 26 -5 50 -10 52 -7 2
-4 19 7 45 18 43 33 56 33 28z m272 5 c17 0 20 -4 15 -30 -4 -16 -2 -30 3 -30
5 0 10 15 12 33 3 30 5 32 43 32 36 0 40 -3 43 -27 2 -16 -1 -28 -5 -28 -5 0
-6 -28 -2 -62 3 -35 5 -65 3 -66 -5 -8 -64 10 -64 19 0 12 -49 6 -82 -10 -15
-8 -35 -10 -45 -6 -12 5 -14 9 -5 12 15 6 17 103 2 103 -5 0 -10 -20 -10 -44
0 -41 -1 -43 -25 -38 -30 5 -32 23 -4 40 14 9 18 19 13 34 -3 11 -2 18 2 16 5
-3 18 3 28 13 11 11 14 19 8 19 -7 0 -12 4 -12 9 0 11 30 20 48 15 8 -2 23 -4
34 -4z m-212 -125 c0 -8 -4 -15 -10 -15 -5 0 -7 7 -4 15 4 8 8 15 10 15 2 0 4
-7 4 -15z"/>
<path d="M1225 2630 c0 -28 1 -50 2 -50 5 0 44 82 41 85 -2 1 -12 5 -23 9 -18
5 -20 1 -20 -44z"/>
<path d="M1565 2690 c-19 -8 -19 -9 3 -9 12 -1 22 4 22 9 0 6 -1 10 -2 9 -2 0
-12 -4 -23 -9z"/>
<path d="M1462 2678 c-15 -15 -16 -28 -2 -28 6 0 10 6 10 14 0 8 6 17 13 19 6
3 7 6 2 6 -6 1 -16 -4 -23 -11z"/>
<path d="M1478 2603 c12 -2 30 -2 40 0 9 3 -1 5 -23 4 -22 0 -30 -2 -17 -4z"/>
<path d="M4823 2710 c0 -25 2 -35 4 -22 2 12 2 32 0 45 -2 12 -4 2 -4 -23z"/>
<path d="M3741 2714 c0 -11 3 -14 6 -6 3 7 2 16 -1 19 -3 4 -6 -2 -5 -13z"/>
<path d="M5045 2720 c-3 -6 1 -7 9 -4 18 7 21 14 7 14 -6 0 -13 -4 -16 -10z"/>
<path d="M2915 2690 c-3 -5 -1 -10 4 -10 6 0 11 5 11 10 0 6 -2 10 -4 10 -3 0
-8 -4 -11 -10z"/>
<path d="M4853 2671 c-9 -24 -8 -29 3 -24 8 3 14 16 14 29 0 31 -3 30 -17 -5z"/>
<path d="M3792 2658 c0 -13 -3 -35 -6 -50 -6 -27 -5 -28 32 -28 46 0 51 3 44
36 -3 19 -9 23 -23 19 -15 -5 -19 -1 -19 19 0 16 -6 26 -14 26 -8 0 -14 -10
-14 -22z"/>
<path d="M2976 2649 c3 -6 2 -14 -3 -18 -5 -3 -13 -21 -16 -38 -7 -35 1 -39
58 -33 27 3 28 5 21 34 -5 19 -11 23 -27 19 -20 -5 -21 -3 -15 20 5 21 3 27
-9 27 -9 0 -13 -5 -9 -11z"/>
<path d="M3518 2633 c-11 -3 -18 -14 -18 -29 0 -20 5 -24 29 -24 19 0 31 6 33
16 3 14 7 13 31 -6 23 -19 28 -19 33 -6 3 9 11 13 18 9 7 -4 8 -3 1 4 -8 8
-107 46 -109 42 -1 -1 -9 -3 -18 -6z"/>
<path d="M4945 2598 c-131 -54 -120 -47 -100 -62 16 -12 16 -17 4 -64 -7 -29
-15 -52 -18 -52 -3 -1 -23 -3 -43 -6 -31 -5 -38 -2 -38 11 0 13 -2 14 -14 3
-19 -18 -10 -28 25 -28 28 0 29 -2 29 -45 0 -36 3 -45 18 -45 9 0 13 4 7 8 -5
4 -11 19 -13 35 -6 60 45 27 144 -91 23 -29 32 -33 58 -28 17 4 37 7 43 8 8 1
10 10 6 27 -6 23 -4 24 9 13 10 -8 19 -9 22 -3 3 5 1 12 -4 14 -6 3 -5 4 2 3
7 -2 13 -12 12 -23 0 -15 5 -19 18 -15 10 2 15 8 12 13 -3 5 3 6 12 2 12 -4
15 -3 10 5 -9 15 -1 16 94 16 74 1 75 1 78 29 2 15 10 27 17 27 22 0 27 -18
12 -47 -9 -18 -11 -36 -6 -48 13 -34 10 -51 -10 -52 -11 -1 -47 -9 -80 -19
-35 -9 -68 -13 -78 -9 -10 5 -27 7 -38 7 -11 -1 -14 1 -7 4 6 3 12 12 12 19 0
7 3 15 8 18 4 2 1 2 -6 0 -8 -1 -19 -3 -26 -3 -8 0 -32 -37 -55 -82 l-41 -82
26 -27 26 -27 -26 -17 c-31 -21 -33 -31 -6 -40 11 -3 20 -9 20 -13 0 -10 -80
-33 -91 -27 -5 4 -9 2 -9 -3 0 -5 -16 -14 -36 -20 -29 -9 -35 -8 -30 3 3 8 1
17 -3 20 -5 2 -11 -5 -15 -18 -4 -17 -22 -27 -82 -47 -60 -20 -94 -39 -156
-89 -43 -35 -96 -88 -117 -118 -22 -32 -42 -50 -45 -44 -4 6 -2 11 3 11 6 0
11 4 11 9 0 5 -6 9 -12 8 -7 0 -98 1 -202 1 -156 2 -187 4 -177 15 6 8 7 18 3
23 -4 4 2 2 12 -6 17 -13 18 -13 11 -1 -6 11 -4 13 11 6 27 -13 95 -9 104 5 4
7 35 11 76 11 54 0 71 -4 83 -18 13 -17 13 -17 7 2 -6 19 -5 19 8 3 7 -10 17
-18 21 -18 4 0 3 6 -2 13 -5 6 -17 37 -27 67 -17 51 -23 58 -83 94 -50 29 -73
37 -99 34 -19 -2 -34 -1 -34 3 0 3 -11 4 -25 1 -23 -4 -25 -1 -25 29 -1 32 -2
33 -15 15 -8 -10 -12 -22 -10 -27 3 -4 0 -20 -7 -36 -6 -15 -11 -31 -10 -35 1
-5 -1 -7 -6 -7 -37 6 -43 -1 -40 -53 3 -56 18 -72 36 -36 10 23 11 23 11 2 1
-26 -23 -48 -44 -40 -11 4 -15 21 -15 66 0 54 -2 60 -21 60 -13 0 -18 4 -13
13 6 9 5 9 -7 0 -9 -7 -38 -12 -65 -12 -69 1 -90 -10 -117 -61 -13 -25 -44
-59 -70 -78 l-47 -34 -129 1 c-71 1 -132 -2 -135 -7 -3 -5 -6 -59 -7 -120 -1
-62 -3 -112 -6 -112 -3 0 -18 9 -33 20 -26 19 -30 19 -65 4 -39 -16 -65 -7
-65 22 0 18 -28 17 -59 0 -24 -14 -24 -14 -3 -20 12 -4 27 -4 32 -1 16 10 80
-43 74 -60 -4 -8 -1 -15 6 -15 6 0 9 -4 5 -9 -3 -6 0 -13 7 -18 7 -4 18 -17
24 -28 7 -11 19 -19 28 -17 9 2 16 -2 16 -8 0 -6 8 -10 18 -8 13 2 18 -5 20
-32 5 -49 19 -62 63 -59 21 2 41 0 45 -4 15 -15 20 -6 16 28 -2 19 1 42 8 50
15 18 84 21 78 3 -3 -7 -15 -13 -29 -13 -17 0 -25 -6 -27 -23 -2 -13 3 -24 12
-28 21 -8 56 14 56 35 0 17 6 18 58 14 31 -3 60 -10 64 -17 6 -8 8 -7 8 2 0 6
7 12 15 12 9 0 18 7 21 15 8 21 32 19 37 -3 4 -15 5 -15 6 2 1 15 6 17 33 12
18 -3 35 -11 39 -18 4 -6 16 -8 28 -5 13 3 21 0 21 -7 0 -6 9 -12 20 -12 14 0
20 7 20 23 0 20 5 23 40 23 27 0 43 -5 46 -15 4 -10 13 -13 25 -10 13 4 19 1
19 -9 0 -9 5 -16 10 -16 6 0 10 5 10 10 0 20 19 10 23 -12 3 -14 5 -9 6 15 1
26 6 37 16 37 8 0 15 -9 15 -20 0 -14 5 -18 16 -13 9 3 20 0 25 -8 6 -9 9 -10
9 -2 0 8 20 12 61 12 45 -1 59 -4 56 -14 -3 -7 0 -18 6 -24 8 -8 8 -14 -2 -24
-14 -14 -47 -15 -593 -16 l-378 -1 0 -58 0 -57 1158 2 c636 2 1201 3 1255 3
l97 0 0 60 0 60 -92 0 c-50 0 -88 3 -84 7 4 4 45 6 91 4 l85 -3 0 253 0 253
-42 -42 c-39 -37 -77 -57 -160 -82 -23 -7 -44 0 -115 37 -109 55 -137 65 -153
50 -8 -8 -14 -8 -16 -2 -2 6 -30 9 -65 7 -49 -3 -60 -1 -53 10 12 19 7 87 -8
106 -7 9 -8 13 -2 9 8 -5 8 5 -1 31 -12 34 -17 37 -59 42 -25 3 -49 10 -53 14
-4 5 6 6 22 2 l30 -6 -30 17 c-27 15 -28 17 -10 24 11 4 14 8 8 8 -9 1 -13 17
-13 46 0 57 35 96 84 93 37 -2 58 3 68 17 5 6 8 6 8 -2 0 -18 -63 -78 -80 -75
-11 2 -12 1 -2 -6 8 -5 10 -16 6 -28 -5 -14 -2 -12 13 6 11 14 22 33 26 42 3
10 18 20 32 24 14 3 25 10 25 15 0 5 4 8 9 7 5 -2 9 2 10 7 1 6 -3 10 -8 10
-5 0 -13 4 -18 9 -5 5 -3 6 5 2 7 -4 12 -2 12 5 0 7 15 25 33 40 l32 27 -24
32 c-20 28 -22 35 -10 56 9 17 21 24 43 25 70 2 85 7 170 58 73 44 91 61 107
95 25 56 24 61 -18 80 -32 13 -48 15 -98 6 -90 -15 -109 -13 -120 12 -7 16
-19 23 -42 24 -22 1 -48 15 -81 42 -48 41 -51 42 -158 51 -60 6 -129 11 -154
12 -25 1 -52 5 -60 9 -8 4 -46 -6 -85 -22z m-30 -88 c5 -17 12 -19 46 -14 45
8 51 -5 20 -46 -16 -20 -21 -22 -35 -11 -9 7 -16 20 -16 28 0 10 -6 12 -19 8
-23 -7 -35 8 -26 35 8 26 22 26 30 0z m356 -30 c21 0 39 -4 39 -10 0 -6 -42
-10 -107 -10 -67 0 -103 4 -97 9 9 10 89 20 112 14 8 -2 31 -3 53 -3z m119 -5
c0 -8 7 -15 15 -15 17 0 21 -16 5 -22 -5 -2 -6 -9 -1 -16 6 -10 13 -2 25 27
18 47 42 57 31 14 -11 -45 -35 -75 -55 -70 -15 4 -18 -2 -16 -41 0 -28 -4 -47
-11 -49 -9 -3 -13 8 -13 39 0 30 -3 39 -10 28 -17 -27 -24 0 -7 29 19 32 22
45 8 36 -5 -3 -12 -1 -16 5 -3 6 1 13 9 16 9 3 16 12 16 20 0 8 5 14 10 14 6
0 10 -7 10 -15z m134 -28 c19 -50 20 -57 5 -57 -11 0 -39 60 -39 85 0 29 17
15 34 -28z m-234 -17 c0 -18 -7 -20 -80 -20 -73 0 -80 2 -80 20 0 18 7 20 80
20 73 0 80 -2 80 -20z m43 -31 c-7 -7 -12 -3 -15 16 -5 25 -4 25 10 11 12 -11
13 -19 5 -27z m142 -20 c-18 -51 -19 -48 5 -42 16 4 18 11 13 30 -9 40 19 23
36 -21 15 -40 10 -56 -12 -37 -8 6 -21 9 -28 7 -47 -14 -79 -15 -79 -1 0 8 4
15 9 15 5 0 17 20 27 45 22 60 50 63 29 4z m-555 -5 c0 -17 -5 -24 -20 -24
-22 0 -27 29 -8 48 16 16 28 6 28 -24z m388 -22 c4 -47 -16 -64 -49 -44 -10 7
-39 12 -63 12 -44 0 -58 11 -48 38 3 8 25 12 62 12 56 0 59 -1 63 -27 4 -26 4
-25 6 5 l1 33 -72 -3 c-70 -3 -73 -4 -75 -28 0 -14 -1 -31 -2 -37 -1 -7 -5
-13 -11 -13 -11 0 -14 83 -3 94 4 4 48 5 98 4 l90 -3 3 -43z m-364 22 c3 -8 2
-12 -4 -9 -6 3 -10 10 -10 16 0 14 7 11 14 -7z m480 -9 c-4 -8 -8 -15 -10 -15
-2 0 -4 7 -4 15 0 8 4 15 10 15 5 0 7 -7 4 -15z m-62 -82 c-6 -2 -9 -10 -6
-15 4 -7 2 -8 -5 -4 -13 9 -5 26 12 25 9 0 8 -2 -1 -6z m-167 -123 l30 -8 -35
-1 c-19 0 -42 4 -50 9 -12 8 -11 10 5 9 11 -1 34 -5 50 -9z m62 4 c-3 -3 -12
-4 -19 -1 -8 3 -5 6 6 6 11 1 17 -2 13 -5z m-327 -368 c0 -19 -37 -63 -45 -54
-8 8 25 68 37 68 4 0 8 -6 8 -14z m148 -2 c23 -7 2 -24 -24 -20 -13 3 -24 0
-24 -5 0 -5 11 -9 25 -9 21 0 25 -5 25 -30 0 -26 -3 -30 -29 -30 -24 0 -28 -3
-24 -20 6 -22 -12 -28 -20 -7 -3 6 -6 2 -6 -10 -1 -31 22 -29 39 2 17 32 27
32 42 0 13 -29 5 -43 -16 -26 -11 9 -15 8 -20 -4 -4 -11 -16 -15 -38 -13 -25
2 -34 9 -39 28 -5 16 -7 19 -8 7 -1 -10 -13 -22 -27 -27 -35 -14 -34 -14 -34
24 0 19 -5 36 -12 38 -7 3 -3 15 12 36 19 26 31 32 64 34 37 1 38 2 9 5 -19 3
-33 10 -33 18 0 20 84 26 138 9z m190 6 c30 0 32 -2 32 -35 l0 -34 -77 -4 -78
-3 85 -2 c85 -2 85 -2 87 -30 1 -15 0 -37 -2 -50 -5 -21 -8 -22 -103 -16 -53
4 -98 7 -99 8 0 0 2 37 5 81 l7 80 35 6 c19 4 44 5 55 3 11 -2 35 -4 53 -4z
m-1090 -44 c5 -23 -9 -37 -27 -27 -8 5 -11 16 -6 30 8 25 28 23 33 -3z m-180
-40 c2 -10 -1 -23 -7 -29 -16 -16 -34 6 -26 33 8 24 28 22 33 -4z m1105 -21
c-3 -9 -8 -14 -10 -11 -3 3 -2 9 2 15 9 16 15 13 8 -4z m-1116 -175 c25 0 43
-5 43 -11 0 -6 -7 -9 -15 -5 -8 3 -15 4 -15 2 0 -2 7 -20 15 -39 8 -20 15 -55
15 -77 0 -33 -3 -40 -20 -40 -18 0 -25 -11 -21 -33 1 -5 -3 -6 -9 -2 -5 3 -10
1 -10 -4 0 -6 -11 -11 -25 -11 -31 0 -34 29 -5 37 25 7 26 20 3 25 -10 2 -23
-3 -30 -12 -10 -12 -15 -13 -32 -3 -11 7 -22 9 -25 4 -3 -4 -20 -8 -38 -7 -32
1 -33 3 -36 46 -2 25 -7 49 -11 53 -13 13 12 57 32 57 9 0 17 -7 17 -15 0 -8
5 -15 10 -15 6 0 10 -7 10 -15 0 -8 -4 -15 -10 -15 -5 0 -9 -17 -9 -37 1 -26
3 -30 6 -13 2 14 8 34 13 45 17 40 19 65 4 65 -8 0 -14 5 -14 10 0 6 20 10 45
10 28 0 45 4 45 12 0 9 3 9 12 0 7 -7 31 -12 55 -12z m113 10 c0 -5 14 -10 30
-10 17 0 30 -4 30 -10 0 -5 -7 -10 -16 -10 -21 0 -14 -34 9 -38 13 -3 17 3 17
28 0 30 1 31 43 28 39 -3 42 -5 47 -37 4 -30 7 -32 18 -18 10 12 20 14 37 7
13 -5 26 -6 31 -2 4 4 4 2 0 -5 -3 -6 -2 -14 3 -18 9 -5 5 -84 -5 -94 -8 -9
-74 -11 -74 -3 0 12 -94 12 -101 0 -4 -6 -15 4 -25 21 -10 17 -21 31 -25 31
-11 0 -19 -29 -12 -47 5 -13 2 -15 -11 -10 -10 4 -26 7 -36 7 -15 0 -18 11
-22 63 -6 71 -1 90 18 83 9 -3 16 4 20 19 6 24 24 35 24 15z m590 -45 c0 -8
-7 -15 -15 -15 -16 0 -20 12 -8 23 11 12 23 8 23 -8z m-233 -18 c12 5 14 1 8
-18 -3 -13 -9 -31 -11 -40 -3 -9 -15 -20 -27 -24 -21 -7 -20 -8 8 -14 54 -11
37 -71 -20 -71 -40 0 -58 24 -49 63 4 17 6 44 5 58 -1 14 4 30 11 36 17 14 52
21 56 11 2 -4 10 -4 19 -1z m-802 -26 c-9 -35 -24 -51 -46 -51 -11 0 -19 -4
-19 -10 0 -5 13 -10 29 -10 37 0 47 -15 30 -46 -10 -19 -21 -24 -50 -24 -27 0
-39 5 -42 18 -6 21 -3 54 6 69 4 6 3 14 -3 18 -30 19 13 60 63 61 36 1 38 -1
32 -25z m95 9 c32 -32 26 -50 -16 -50 -24 0 -34 -4 -31 -12 2 -8 17 -12 37
-10 29 3 32 2 22 -11 -6 -7 -10 -16 -7 -18 2 -3 -9 -6 -25 -7 -57 -4 -89 57
-54 106 19 27 48 28 74 2z m798 8 c7 -7 12 -22 12 -35 0 -20 -5 -23 -35 -23
-37 0 -44 -10 -20 -30 12 -10 18 -10 30 0 20 17 32 5 15 -15 -42 -51 -104 32
-70 96 12 21 50 25 68 7z m97 -1 c11 -9 14 -16 7 -21 -6 -3 -13 -2 -17 4 -8
13 -35 13 -35 0 0 -5 14 -16 30 -25 31 -16 39 -45 17 -63 -14 -12 -35 -11 -54
1 -22 14 -15 29 7 17 21 -11 40 -6 40 11 0 6 -13 15 -30 20 -31 11 -39 36 -18
57 16 16 30 15 53 -1z m-915 -229 c0 -4 -6 -8 -14 -8 -8 0 -17 4 -20 8 -2 4 4
8 15 8 10 0 19 -4 19 -8z m46 0 c3 -4 -1 -5 -10 -4 -8 1 -18 5 -22 8 -3 4 1 5
10 4 8 -1 18 -5 22 -8z m1574 -27 c41 -5 120 -20 175 -33 l100 -23 -240 -6
c-302 -7 -736 2 -651 13 32 4 64 12 70 17 6 5 32 12 58 16 39 6 49 4 54 -9 6
-15 7 -15 18 0 27 36 230 48 416 25z m-813 -57 c-3 -3 -12 -4 -19 -1 -8 3 -5
6 6 6 11 1 17 -2 13 -5z m-660 -56 c-3 -8 -6 -5 -6 6 -1 11 2 17 5 13 3 -3 4
-12 1 -19z m140 0 c-3 -8 -6 -5 -6 6 -1 11 2 17 5 13 3 -3 4 -12 1 -19z"/>
<path d="M5178 2423 c18 -2 45 -2 60 0 15 2 0 4 -33 4 -33 0 -45 -2 -27 -4z"/>
<path d="M5188 2343 c12 -2 32 -2 45 0 12 2 2 4 -23 4 -25 0 -35 -2 -22 -4z"/>
<path d="M4929 1693 c-4 -52 4 -60 14 -13 3 14 2 34 -3 45 -5 15 -8 6 -11 -32z"/>
<path d="M5005 1730 c3 -5 8 -10 11 -10 2 0 4 5 4 10 0 6 -5 10 -11 10 -5 0
-7 -4 -4 -10z"/>
<path d="M5040 1730 c0 -5 5 -10 10 -10 6 0 10 5 10 10 0 6 -4 10 -10 10 -5 0
-10 -4 -10 -10z"/>
<path d="M4968 1693 c6 -2 18 -2 25 0 6 3 1 5 -13 5 -14 0 -19 -2 -12 -5z"/>
<path d="M5177 1773 c18 -2 50 -2 70 0 21 2 7 4 -32 4 -38 0 -55 -2 -38 -4z"/>
<path d="M5158 1693 c6 -2 18 -2 25 0 6 3 1 5 -13 5 -14 0 -19 -2 -12 -5z"/>
<path d="M5228 1693 c7 -3 16 -2 19 1 4 3 -2 6 -13 5 -11 0 -14 -3 -6 -6z"/>
<path d="M5140 1663 c0 -7 7 -13 15 -13 8 0 15 6 15 13 0 8 -7 14 -15 14 -8 0
-15 -6 -15 -14z"/>
<path d="M5200 1664 c0 -8 9 -14 20 -14 11 0 20 4 20 9 0 5 -9 11 -20 14 -13
3 -20 0 -20 -9z"/>
<path d="M5264 1669 c-3 -6 -1 -16 5 -22 9 -9 14 -8 21 3 9 15 4 30 -10 30 -5
0 -12 -5 -16 -11z"/>
<path d="M3943 1493 c9 -2 25 -2 35 0 9 3 1 5 -18 5 -19 0 -27 -2 -17 -5z"/>
<path d="M3923 1473 c15 -2 37 -2 50 0 12 2 0 4 -28 4 -27 0 -38 -2 -22 -4z"/>
<path d="M3908 1413 c6 -2 18 -2 25 0 6 3 1 5 -13 5 -14 0 -19 -2 -12 -5z"/>
<path d="M3900 1388 c0 -4 12 -8 26 -8 14 0 23 4 19 9 -6 11 -45 10 -45 -1z"/>
<path d="M4086 1484 c-4 -10 -13 -13 -27 -9 -15 5 -19 4 -15 -4 11 -17 66 -14
66 3 0 21 -17 28 -24 10z"/>
<path d="M4190 1484 c0 -9 6 -14 13 -11 6 2 17 -3 24 -12 11 -14 12 -12 13 12
0 22 -4 27 -25 27 -16 0 -25 -6 -25 -16z"/>
<path d="M4190 1415 c0 -25 4 -35 16 -35 11 0 14 5 10 16 -3 9 -6 24 -6 35 0
10 -4 19 -10 19 -5 0 -10 -16 -10 -35z"/>
<path d="M4285 1440 c-4 -6 -10 -8 -15 -5 -4 2 -10 -7 -13 -20 -4 -23 -3 -24
12 -12 9 8 26 18 39 22 12 3 20 11 17 16 -8 12 -32 12 -40 -1z"/>
<path d="M4063 1403 c-1 -35 0 -36 13 -18 16 21 15 46 -2 52 -6 2 -10 -13 -11
-34z"/>
<path d="M4136 1425 c4 -8 8 -15 10 -15 2 0 4 7 4 15 0 8 -4 15 -10 15 -5 0
-7 -7 -4 -15z"/>
<path d="M4291 1393 c-14 -9 -19 -19 -14 -24 12 -12 40 -2 47 16 8 22 -8 26
-33 8z"/>
<path d="M4399 1448 c-6 -20 -5 -37 1 -33 5 3 10 1 12 -5 2 -5 9 -6 17 -1 17
11 7 41 -14 41 -8 0 -15 -1 -16 -2z"/>
<path d="M4403 1353 c-24 -9 -13 -23 17 -23 32 0 40 14 14 24 -9 3 -16 6 -17
5 -1 0 -8 -3 -14 -6z"/>
<path d="M3585 1431 c-7 -12 12 -24 25 -16 11 7 4 25 -10 25 -5 0 -11 -4 -15
-9z"/>
<path d="M3580 1340 c0 -5 12 -10 26 -10 14 0 23 4 19 10 -3 6 -15 10 -26 10
-10 0 -19 -4 -19 -10z"/>
<path d="M3700 1430 c0 -5 7 -10 15 -10 8 0 15 5 15 10 0 6 -7 10 -15 10 -8 0
-15 -4 -15 -10z"/>
<path d="M4497 1444 c-14 -14 -6 -24 19 -24 16 0 24 5 22 13 -5 14 -31 21 -41
11z"/>
<path d="M2436 2596 c-26 -14 -53 -29 -59 -35 -18 -18 0 -24 34 -12 20 7 36 8
42 2 5 -5 1 -12 -12 -16 -11 -3 -33 -21 -48 -40 -26 -31 -28 -39 -25 -110 3
-61 7 -77 20 -81 9 -3 52 -19 94 -35 86 -32 102 -35 74 -14 -11 8 -14 15 -7
15 7 0 9 5 6 10 -10 16 -14 80 -5 80 4 0 11 11 14 25 6 22 11 24 45 21 21 -2
53 -15 71 -27 28 -21 44 -24 133 -26 124 -1 183 -7 220 -22 16 -6 33 -8 38 -5
6 3 16 1 24 -6 9 -7 15 -8 20 0 4 7 11 5 21 -5 9 -8 13 -19 9 -25 -3 -6 1 -7
9 -4 11 4 16 0 16 -11 0 -13 3 -15 13 -6 10 8 14 7 14 -4 0 -17 -33 -20 -42
-4 -5 6 -11 4 -19 -7 -7 -9 -18 -14 -24 -10 -7 4 -12 1 -12 -8 0 -22 -13 -20
-30 4 -13 18 -15 18 -44 -13 -17 -18 -33 -31 -36 -30 -3 1 -6 -7 -6 -17 0 -10
3 -17 7 -14 12 7 20 -29 9 -40 -15 -15 -12 -46 5 -52 8 -4 15 -14 15 -25 0
-23 26 -36 65 -33 17 2 54 3 82 4 29 1 55 6 58 11 4 5 14 5 25 -1 30 -16 162
-12 188 6 19 13 22 25 23 92 1 44 4 66 8 52 11 -43 33 -36 30 9 -2 22 0 43 4
47 4 4 7 0 7 -8 0 -9 7 -21 15 -28 12 -10 15 -9 15 4 0 10 -4 15 -9 12 -7 -5
-22 36 -25 69 -1 6 -5 13 -11 17 -5 4 0 8 13 8 12 0 22 5 22 11 0 5 -4 7 -10
4 -14 -9 0 25 19 46 9 10 25 29 36 43 11 14 27 26 35 26 13 0 13 2 0 11 -12 9
-12 10 3 5 10 -3 20 -6 23 -6 2 0 1 -8 -1 -17 -3 -10 1 -4 9 12 15 29 15 29
16 6 0 -24 0 -24 16 -5 8 10 13 13 9 7 -3 -7 -1 -13 5 -13 6 0 8 -4 5 -10 -3
-5 1 -10 9 -10 11 0 16 -10 17 -32 1 -31 1 -32 9 -8 7 21 8 22 9 4 1 -11 6
-25 12 -31 7 -7 7 -23 -1 -53 -6 -23 -9 -45 -6 -48 3 -3 1 -11 -5 -19 -9 -11
-1 -13 45 -13 58 0 62 3 50 46 -4 15 -12 20 -28 17 -20 -4 -24 0 -28 26 -5 31
5 41 41 41 10 0 26 9 36 20 23 26 31 25 38 -2 3 -13 15 -52 28 -87 l23 -63 48
6 c26 4 58 11 71 17 l22 10 -22 -5 c-13 -2 -23 0 -23 5 0 5 8 10 18 10 9 1 -1
5 -23 8 -23 3 -43 2 -47 -4 -4 -6 -8 -2 -8 9 0 15 -3 16 -14 7 -16 -14 -21 -8
-31 37 -6 31 -5 33 14 27 15 -4 23 -1 27 10 5 13 17 15 55 12 36 -4 47 -2 42
6 -4 7 2 5 12 -3 10 -8 16 -10 13 -5 -9 15 170 19 188 4 11 -9 14 -8 15 7 0
18 1 18 9 -1 5 -11 9 -15 9 -8 1 20 56 25 94 9 34 -14 40 -13 132 22 69 26 99
32 104 24 4 -7 11 4 17 27 l11 39 -50 6 c-34 5 -56 15 -72 32 -24 26 -25 26
-107 15 -46 -6 -93 -14 -105 -17 -21 -6 -23 -3 -23 27 0 54 -9 60 -96 61 -103
2 -124 -5 -124 -43 0 -28 -1 -29 -47 -28 l-48 2 40 6 c32 5 41 11 43 29 3 20
-1 22 -37 22 -23 0 -41 5 -41 10 0 13 -43 13 -55 1 -6 -5 -26 -11 -45 -13 -31
-3 -35 -6 -38 -34 -3 -29 -7 -32 -48 -39 -27 -4 -44 -11 -44 -20 0 -18 -61
-24 -116 -11 -39 9 -44 14 -44 39 l0 28 -27 -21 c-23 -18 -29 -19 -31 -6 -2
10 -17 16 -45 18 -35 2 -43 7 -45 26 -4 26 -5 26 -42 7 -17 -9 -30 -11 -30 -5
0 5 -8 10 -17 10 -15 0 -15 -1 1 -13 13 -10 16 -20 12 -35 -4 -12 -12 -22 -17
-22 -5 0 -9 -6 -9 -12 0 -7 -13 -33 -28 -57 -20 -32 -39 -48 -71 -60 -33 -12
-45 -22 -48 -40 -2 -14 -6 -27 -8 -29 -3 -3 -48 37 -100 89 -101 99 -119 111
-159 103 -21 -3 -25 0 -29 23 -3 20 -4 15 -6 -14 -1 -44 6 -52 27 -31 14 14
16 0 3 -21 -12 -19 -41 -6 -41 19 0 11 -7 20 -15 20 -8 0 -15 -7 -15 -15 0 -8
-7 -15 -15 -15 -8 0 -15 9 -15 21 0 11 -4 17 -10 14 -5 -3 -19 -1 -30 5 -15 8
-26 7 -45 -6 -15 -10 -25 -12 -25 -5 0 15 -58 13 -95 -3 -26 -11 -34 -10 -62
7 -27 15 -32 23 -27 43 5 19 1 26 -20 35 -14 7 -26 16 -26 21 0 14 -22 9 -74
-16z m1774 4 c0 -5 21 -10 46 -10 l46 0 -4 -35 c-2 -19 0 -35 4 -35 4 0 8 -4
8 -10 0 -6 -37 -11 -87 -12 l-88 -2 88 -3 87 -4 0 -33 c0 -19 -6 -36 -12 -38
-7 -2 -53 -2 -102 0 l-88 4 6 37 c3 20 6 57 6 84 0 45 1 47 29 47 17 0 33 5
36 10 3 6 10 10 16 10 5 0 9 -4 9 -10z m-135 -21 c8 -9 -10 -10 -122 -12 l-43
-1 -1 -50 c-1 -28 -4 -61 -7 -74 -8 -28 -28 -29 -24 -2 2 11 6 48 10 82 l7 63
40 5 c50 7 127 1 140 -11z m-1587 -44 c-3 -3 -9 2 -12 12 -6 14 -5 15 5 6 7
-7 10 -15 7 -18z m1502 11 c0 -7 -7 -33 -15 -56 -8 -23 -15 -43 -15 -44 0 -1
18 0 41 2 32 3 39 7 34 21 -11 27 -11 33 1 37 11 5 44 -57 44 -81 0 -8 -4 -15
-10 -15 -5 0 -10 5 -10 10 0 7 -25 9 -75 4 -77 -7 -86 -4 -60 22 8 8 22 37 32
64 17 48 33 65 33 36z m-40 -6 c0 -5 -4 -10 -10 -10 -5 0 -10 5 -10 10 0 6 5
10 10 10 6 0 10 -4 10 -10z m-612 -176 c13 -4 22 -14 22 -25 0 -22 10 -23 64
-8 27 8 41 8 49 0 8 -8 3 -11 -19 -11 -16 0 -46 -9 -66 -20 -26 -14 -36 -15
-32 -6 7 19 -17 26 -60 16 -35 -8 -36 -7 -36 20 0 34 29 47 78 34z m-111 -156
c3 -41 -11 -42 -23 -2 -10 30 -9 35 5 32 9 -2 16 -15 18 -30z m125 -60 c3 -81
4 -83 28 -83 24 0 25 4 30 64 3 40 10 66 18 69 10 3 12 -14 10 -75 l-3 -78
-83 -3 c-46 -2 -89 1 -95 7 -16 13 -16 143 0 148 8 3 13 -16 15 -64 3 -65 4
-68 28 -68 24 0 25 2 28 83 2 45 7 82 12 82 5 0 10 -37 12 -82z m-292 57 c0
-8 7 -15 15 -15 18 0 20 -17 3 -22 -9 -3 -9 -6 0 -12 8 -5 17 5 27 28 18 43
40 49 30 9 -10 -44 -35 -75 -54 -70 -14 3 -17 -3 -16 -41 0 -28 -5 -47 -12
-49 -9 -3 -13 8 -13 39 0 30 -3 39 -10 28 -17 -27 -24 0 -7 29 21 36 21 41 2
41 -8 0 -15 5 -15 10 0 6 7 10 15 10 8 0 15 7 15 15 0 8 5 15 10 15 6 0 10 -7
10 -15z m138 -34 c11 -34 12 -45 2 -51 -10 -6 -9 -15 1 -44 13 -35 5 -63 -10
-37 -6 9 -20 10 -60 3 -39 -7 -51 -6 -51 3 0 7 7 15 15 19 8 3 15 10 15 16 0
6 7 27 15 47 10 24 19 33 25 27 7 -7 5 -23 -5 -47 -15 -36 -15 -37 6 -37 18 0
20 4 15 25 -5 18 -2 25 9 25 19 0 19 1 0 36 -8 16 -15 37 -15 47 0 32 23 12
38 -32z m111 -38 c1 -29 -3 -53 -9 -53 -6 0 -10 30 -9 73 1 84 17 66 18 -20z
m83 -5 c4 -37 2 -48 -8 -48 -15 0 -17 20 -8 69 8 40 10 37 16 -21z m-298 -33
c-4 -8 -8 -15 -10 -15 -2 0 -4 7 -4 15 0 8 4 15 10 15 5 0 7 -7 4 -15z m136
-7 c0 -19 -2 -20 -10 -8 -13 19 -13 30 0 30 6 0 10 -10 10 -22z"/>
<path d="M4167 2543 c18 -2 50 -2 70 0 21 2 7 4 -32 4 -38 0 -55 -2 -38 -4z"/>
<path d="M4130 2455 c0 -8 9 -15 20 -15 11 0 20 7 20 15 0 8 -9 15 -20 15 -11
0 -20 -7 -20 -15z"/>
<path d="M4190 2455 c0 -8 9 -15 19 -15 10 0 21 7 25 15 4 11 -1 15 -19 15
-16 0 -25 -6 -25 -15z"/>
<path d="M4260 2455 c0 -8 7 -15 15 -15 8 0 15 7 15 15 0 8 -7 15 -15 15 -8 0
-15 -7 -15 -15z"/>
<path d="M2815 2599 c-4 -6 -5 -12 -2 -15 2 -3 7 2 10 11 7 17 1 20 -8 4z"/>
<path d="M2721 2574 c0 -11 3 -14 6 -6 3 7 2 16 -1 19 -3 4 -6 -2 -5 -13z"/>
<path d="M3740 2556 c0 -19 5 -38 10 -41 6 -4 10 8 10 29 0 19 -4 38 -10 41
-6 4 -10 -8 -10 -29z"/>
<path d="M3721 2564 c0 -11 3 -14 6 -6 3 7 2 16 -1 19 -3 4 -6 -2 -5 -13z"/>
<path d="M4780 2571 c0 -6 5 -13 10 -16 6 -3 10 1 10 9 0 9 -4 16 -10 16 -5 0
-10 -4 -10 -9z"/>
<path d="M2320 2555 c0 -8 2 -15 4 -15 2 0 6 7 10 15 3 8 1 15 -4 15 -6 0 -10
-7 -10 -15z"/>
<path d="M2345 2549 c-4 -6 -5 -12 -2 -15 2 -3 7 2 10 11 7 17 1 20 -8 4z"/>
<path d="M1665 2530 c-3 -6 1 -7 9 -4 18 7 21 14 7 14 -6 0 -13 -4 -16 -10z"/>
<path d="M2071 2494 c0 -11 3 -14 6 -6 3 7 2 16 -1 19 -3 4 -6 -2 -5 -13z"/>
<path d="M2135 2460 c-3 -5 -8 -19 -10 -31 -2 -11 -7 -29 -10 -40 -6 -17 -1
-19 34 -19 37 0 41 2 41 25 0 20 -5 25 -25 25 -22 0 -25 3 -19 25 6 25 0 33
-11 15z"/>
<path d="M1545 2450 c-3 -5 -1 -10 4 -10 6 0 11 5 11 10 0 6 -2 10 -4 10 -3 0
-8 -4 -11 -10z"/>
<path d="M1780 2437 c0 -7 9 -13 20 -14 11 -1 20 0 20 2 0 2 -9 9 -20 15 -15
8 -20 8 -20 -3z"/>
<path d="M1163 2377 c-71 -59 -167 -117 -194 -117 -15 0 -31 -5 -34 -10 -8
-12 36 -30 50 -21 21 14 85 32 95 26 6 -4 7 1 3 12 -3 10 -3 15 1 11 5 -4 26
14 48 39 22 25 46 52 54 60 14 14 18 23 10 23 -3 0 -17 -11 -33 -23z"/>
<path d="M3685 2387 c-4 -10 -5 -21 -1 -24 10 -10 18 4 13 24 -4 17 -4 17 -12
0z"/>
<path d="M3580 2370 c0 -5 5 -10 10 -10 6 0 10 5 10 10 0 6 -4 10 -10 10 -5 0
-10 -4 -10 -10z"/>
<path d="M4350 2375 c0 -5 5 -17 10 -25 5 -8 10 -10 10 -5 0 6 -5 17 -10 25
-5 8 -10 11 -10 5z"/>
<path d="M2070 2337 c0 -20 5 -39 10 -42 7 -4 9 7 6 30 -6 50 -16 57 -16 12z"/>
<path d="M4326 2353 c-6 -14 -5 -15 5 -6 7 7 10 15 7 18 -3 3 -9 -2 -12 -12z"/>
<path d="M4841 2328 c0 -9 -8 -24 -17 -32 -14 -15 -14 -16 1 -16 18 0 29 21
22 47 -4 15 -5 16 -6 1z"/>
<path d="M2107 2291 c-4 -17 -3 -21 5 -13 5 5 8 16 6 23 -3 8 -7 3 -11 -10z"/>
<path d="M1625 2270 c3 -5 8 -10 11 -10 2 0 4 5 4 10 0 6 -5 10 -11 10 -5 0
-7 -4 -4 -10z"/>
<path d="M705 2230 c-22 -22 -43 -40 -47 -40 -5 0 -8 -4 -8 -10 0 -11 30 -13
54 -4 9 3 13 11 9 17 -3 5 1 15 9 21 18 13 42 56 31 56 -4 -1 -26 -19 -48 -40z"/>
<path d="M659 2243 c-13 -16 -12 -17 4 -4 9 7 17 15 17 17 0 8 -8 3 -21 -13z"/>
<path d="M1090 2230 c0 -5 5 -10 10 -10 6 0 10 5 10 10 0 6 -4 10 -10 10 -5 0
-10 -4 -10 -10z"/>
<path d="M1681 2223 c0 -10 -2 -29 -3 -43 -3 -28 -1 -30 43 -30 26 0 30 3 27
23 -2 14 -10 22 -23 22 -15 0 -19 6 -18 23 2 13 -3 22 -11 22 -8 0 -15 -8 -15
-17z"/>
<path d="M3552 2220 c0 -14 2 -19 5 -12 2 6 2 18 0 25 -3 6 -5 1 -5 -13z"/>
<path d="M1110 2210 c0 -5 5 -10 12 -10 7 0 -2 -15 -20 -33 -18 -18 -32 -37
-32 -41 0 -5 -8 -15 -17 -22 -10 -7 -13 -14 -6 -14 6 0 21 14 33 30 12 17 27
30 35 30 7 0 25 -21 40 -47 25 -46 26 -49 11 -81 -9 -18 -16 -44 -16 -59 0
-21 3 -23 14 -14 12 10 17 8 25 -7 6 -11 7 -23 3 -28 -4 -5 2 -2 13 7 11 9 26
14 34 12 10 -4 12 2 6 27 -6 26 -2 37 20 60 l27 28 -83 86 c-80 83 -99 97 -99
76z m60 -70 c0 -5 -2 -10 -4 -10 -3 0 -8 5 -11 10 -3 6 -1 10 4 10 6 0 11 -4
11 -10z m40 -40 c0 -5 -6 -11 -12 -14 -10 -5 -10 -7 0 -12 14 -7 16 -24 3 -24
-7 0 -31 51 -31 66 0 1 9 0 20 -3 11 -3 20 -9 20 -13z m31 -67 c13 -16 12 -17
-3 -4 -10 7 -18 15 -18 17 0 8 8 3 21 -13z"/>
<path d="M3688 2173 c2 -27 7 -51 10 -55 4 -4 5 17 4 47 -2 30 -7 55 -10 55
-4 0 -6 -21 -4 -47z"/>
<path d="M1055 2200 c-3 -5 -1 -10 4 -10 6 0 11 5 11 10 0 6 -2 10 -4 10 -3 0
-8 -4 -11 -10z"/>
<path d="M2812 2193 c17 -19 16 -22 -40 -82 l-58 -63 -69 3 c-67 2 -70 2 -86
-27 -23 -39 -24 -37 14 -56 34 -19 46 -21 175 -39 45 -7 82 -16 82 -21 0 -4
-6 -8 -12 -8 -14 -1 -105 -77 -98 -82 3 -2 30 -15 60 -29 l55 -26 -52 -23
c-29 -12 -53 -25 -53 -28 0 -2 8 -11 18 -18 15 -12 14 -13 -15 -14 -29 0 -33
3 -33 26 0 22 -4 25 -27 22 -20 -2 -29 -9 -31 -25 -3 -18 -11 -22 -45 -25 -35
-2 -43 -7 -45 -25 -3 -22 3 -26 63 -35 19 -3 19 -5 -6 -28 -14 -14 -34 -30
-45 -36 -17 -10 -17 -15 -6 -34 7 -12 12 -23 10 -25 -2 -1 -31 -15 -66 -30
-54 -24 -83 -49 -202 -173 l-138 -144 -7 31 c-5 24 -11 30 -28 28 -17 -2 -23
4 -25 26 -2 15 -7 27 -11 27 -6 0 -41 -95 -41 -113 0 -4 26 -7 58 -7 31 0 52
-4 46 -8 -7 -4 -13 -16 -15 -27 -3 -11 -13 -21 -24 -23 -11 -2 -26 -11 -32
-20 -11 -13 -13 -13 -13 -1 -1 8 -8 2 -16 -13 -8 -16 -19 -28 -25 -28 -6 0 -8
-4 -5 -8 3 -5 -15 -28 -39 -52 -34 -33 -45 -52 -45 -75 0 -24 -18 -50 -93
-131 -50 -55 -115 -125 -142 -156 l-50 -56 -58 54 c-31 29 -57 58 -57 64 0 5
-7 10 -15 10 -19 0 -125 -66 -125 -78 0 -5 14 -18 30 -30 32 -24 41 -48 14
-38 -8 3 -13 2 -10 -2 3 -5 -16 -19 -42 -33 -26 -13 -63 -33 -82 -45 -19 -11
-80 -28 -135 -38 -132 -23 -207 -45 -200 -56 4 -6 25 -10 49 -10 45 0 84 -27
67 -46 -5 -5 -2 -24 6 -43 10 -25 17 -31 23 -21 6 10 10 8 19 -8 10 -18 18
-20 88 -16 76 3 213 40 213 56 0 4 14 8 30 8 17 0 30 5 30 10 0 6 5 10 12 10
19 0 88 51 88 65 0 7 9 15 20 18 14 3 20 14 20 32 0 33 22 29 31 -6 l6 -24 5
25 5 25 8 -23 c6 -18 10 -20 22 -10 9 8 17 8 21 2 8 -12 56 -13 67 -2 4 4 13
4 19 2 7 -3 24 6 37 20 13 14 32 26 42 26 11 0 17 8 17 25 0 17 4 23 15 19 9
-4 18 3 24 18 5 13 16 30 25 37 9 7 16 20 16 27 0 7 6 11 13 9 13 -5 46 46 48
73 1 10 4 7 9 -8 5 -16 8 -19 9 -8 2 26 23 68 32 62 5 -3 11 8 15 23 3 15 7
34 10 40 2 7 -2 13 -8 13 -6 0 -8 3 -5 6 4 4 13 1 22 -6 10 -9 19 -9 28 -2 6
6 44 9 84 7 60 -2 73 0 78 14 8 25 131 17 146 -11 8 -15 13 -17 25 -7 8 6 17
9 21 6 3 -4 14 -2 24 4 13 7 19 21 19 47 0 20 4 51 8 67 13 48 1 89 -28 93
-13 2 -30 11 -36 20 -11 15 -14 15 -31 -1 -21 -19 -63 -23 -63 -6 0 5 -4 7
-10 4 -5 -3 -10 -1 -10 6 0 7 -13 0 -29 -15 l-28 -27 5 28 c4 28 50 86 61 79
3 -2 22 17 41 43 39 52 88 101 100 101 5 0 12 9 15 20 3 11 15 20 26 20 11 0
19 7 19 16 0 10 6 14 15 11 8 -4 17 -2 20 3 3 6 35 24 71 41 35 17 67 35 70
40 3 5 9 7 14 4 5 -3 12 0 17 7 4 7 25 22 46 33 40 21 62 48 52 65 -3 5 1 7 9
4 8 -3 24 4 36 16 11 11 24 19 28 16 4 -2 8 15 10 37 2 23 9 45 17 50 20 11
15 56 -8 63 -11 3 -16 12 -13 20 4 10 2 12 -6 8 -8 -5 -9 -1 -4 12 4 10 4 15
0 11 -10 -9 -35 13 -28 25 3 5 -2 17 -13 26 -10 9 -18 23 -19 30 -2 28 -4 33
-12 28 -5 -3 -19 9 -32 26 -17 23 -24 27 -31 17 -7 -11 -9 -10 -9 4 0 9 8 17
18 18 14 0 14 2 -3 9 -19 8 -19 9 4 9 17 1 21 5 17 17 -3 9 -2 12 5 8 6 -3 23
6 39 21 17 16 33 24 41 20 8 -5 10 -4 5 4 -6 8 0 10 21 6 25 -5 26 -4 5 4 -12
6 -29 8 -37 5 -8 -4 -15 -1 -15 5 0 6 10 11 23 11 18 0 19 2 7 10 -8 5 -10 10
-5 10 6 0 3 5 -5 11 -11 8 -12 12 -2 16 6 2 10 9 6 14 -3 5 1 9 8 9 8 0 6 5
-4 11 -10 5 -18 15 -18 22 0 15 -71 78 -81 71 -5 -3 -23 3 -41 12 -33 17 -33
16 -16 -3z m198 -565 c0 -5 -7 -8 -15 -8 -10 0 -15 -10 -15 -29 0 -49 -9 -61
-46 -61 -19 0 -34 5 -34 10 0 6 11 10 25 10 21 0 25 5 25 30 0 25 -4 30 -25
30 -18 0 -26 -7 -31 -25 -7 -27 -48 -65 -70 -65 -22 0 -16 20 10 31 13 6 29
22 35 35 9 21 8 24 -9 24 -11 0 -20 4 -20 9 0 5 -9 7 -20 4 -25 -7 -26 13 -2
26 10 5 24 21 32 35 7 14 20 26 28 26 11 0 9 -8 -7 -35 l-20 -35 55 0 55 0
-21 30 c-35 49 -12 55 30 8 22 -24 39 -46 40 -50z m-322 54 c3 -19 10 -22 48
-22 24 0 44 -4 44 -10 0 -5 -20 -10 -45 -10 -25 0 -45 -5 -45 -10 0 -6 20 -31
45 -55 30 -29 41 -46 34 -51 -7 -4 -29 11 -54 37 l-42 45 -24 -33 c-27 -35
-65 -60 -76 -49 -4 4 9 22 29 39 20 18 41 42 48 55 10 21 9 22 -35 22 -25 0
-45 5 -45 10 0 6 20 10 45 10 42 0 45 2 45 26 0 31 23 28 28 -4z m66 -77 c-5
-12 -10 -13 -20 -4 -19 15 -18 19 6 19 13 0 18 -5 14 -15z m-71 -39 c3 -8 -5
-18 -19 -25 l-25 -11 18 25 c21 29 20 28 26 11z m-402 -596 c48 0 56 -13 33
-55 -14 -27 -25 -35 -54 -38 -30 -3 -28 -4 13 -5 47 -2 47 -2 47 -37 l0 -35
-90 0 -90 0 0 35 c0 33 2 35 33 36 30 2 30 2 5 6 -20 3 -28 10 -28 24 0 10 -4
19 -10 19 -5 0 -10 11 -10 25 0 22 4 25 39 25 22 0 43 5 47 11 4 8 9 8 17 0 6
-6 28 -11 48 -11z m149 -37 c0 -11 3 -14 8 -7 4 6 14 14 22 17 12 4 11 6 -2 6
-24 1 -23 21 0 21 10 0 24 6 30 12 10 10 14 10 21 0 4 -7 12 -12 17 -11 5 1
16 1 24 0 12 -1 11 -5 -4 -16 -16 -12 -17 -15 -4 -15 18 0 32 -27 18 -35 -6
-4 -10 -28 -10 -55 0 -33 -5 -50 -15 -54 -18 -6 -45 2 -45 15 0 5 -11 9 -25 9
-22 0 -25 4 -25 36 0 35 1 35 38 32 35 -3 37 -5 37 -35 0 -18 3 -33 7 -33 5 0
8 18 8 40 l0 40 -50 0 -50 0 0 -40 c0 -39 -1 -40 -35 -40 l-35 0 0 70 c0 87
18 93 23 8 3 -61 3 -60 5 16 l2 80 20 -22 c11 -12 20 -29 20 -39z m-90 -40 c0
-21 -3 -24 -9 -14 -5 8 -7 20 -4 28 8 21 13 15 13 -14z"/>
<path d="M2188 943 c23 -2 59 -2 80 0 20 2 1 4 -43 4 -44 0 -61 -2 -37 -4z"/>
<path d="M2170 910 c0 -5 25 -10 55 -10 30 0 55 5 55 10 0 6 -25 10 -55 10
-30 0 -55 -4 -55 -10z"/>
<path d="M2160 835 c0 -12 14 -15 70 -15 56 0 70 3 70 15 0 12 -14 15 -70 15
-56 0 -70 -3 -70 -15z"/>
<path d="M2485 930 c-4 -6 6 -10 22 -10 22 0 25 2 13 10 -19 12 -27 12 -35 0z"/>
<path d="M2460 855 c0 -8 7 -15 15 -15 8 0 15 7 15 15 0 8 -7 15 -15 15 -8 0
-15 -7 -15 -15z"/>
<path d="M1066 2175 c-11 -8 -16 -18 -11 -22 4 -5 10 -2 12 5 3 6 11 12 18 12
8 0 17 5 20 10 9 15 -17 11 -39 -5z"/>
<path d="M3548 2164 c-38 -20 -36 -28 2 -9 17 9 30 18 30 20 0 7 -1 6 -32 -11z"/>
<path d="M710 2149 c-8 -5 -34 -13 -57 -19 -24 -6 -43 -16 -43 -21 0 -6 -14
-24 -31 -40 -27 -25 -29 -30 -14 -35 10 -4 21 -1 26 7 6 10 9 10 9 2 0 -7 5
-13 11 -13 6 0 8 7 5 17 -4 10 -4 14 0 11 9 -10 32 15 27 29 -3 8 3 13 16 13
17 0 21 -6 21 -30 0 -22 -5 -30 -17 -30 -15 0 -15 -2 -4 -9 12 -8 12 -14 -4
-37 -10 -16 -20 -24 -22 -19 -1 6 -33 9 -70 9 -64 -2 -65 -1 -18 5 l50 7 -63
4 c-35 3 -70 1 -79 -4 -22 -12 -34 13 -18 38 8 13 10 28 5 41 -6 15 -9 16 -9
4 -1 -9 -13 -22 -27 -29 -21 -12 -27 -12 -34 0 -6 10 -13 4 -26 -24 -15 -30
-16 -41 -6 -57 11 -17 9 -19 -17 -19 -17 0 -33 5 -36 10 -10 16 -35 12 -42 -7
-3 -10 -12 -25 -20 -35 -10 -11 -12 -22 -5 -35 6 -10 15 -30 20 -45 14 -34 72
-62 113 -54 24 5 35 1 54 -20 15 -16 31 -24 40 -20 8 3 15 0 15 -7 0 -8 3 -8
9 2 6 9 11 10 15 2 4 -6 13 -11 19 -11 7 0 6 4 -3 10 -12 8 -9 10 12 10 15 0
29 4 33 10 4 6 16 5 33 -1 44 -17 81 -19 76 -5 -6 15 111 22 130 8 6 -5 25
-12 43 -15 36 -7 47 9 48 74 0 20 7 45 15 54 12 14 12 19 3 22 -7 3 -13 18
-13 34 0 21 -5 29 -17 29 -10 0 -27 7 -38 15 -19 15 -19 16 -1 46 14 23 16 36
8 59 -6 15 -8 31 -5 34 7 7 -17 9 -59 6 -19 -1 -28 3 -28 14 0 20 -12 26 -30
15z m2 -261 l1 -73 7 65 c5 48 9 59 14 43 5 -13 14 -19 22 -16 12 4 11 8 -3
18 -15 12 -16 14 -3 19 19 7 47 10 81 8 29 -2 30 -3 28 -107 0 -32 -3 -63 -5
-67 -8 -12 -52 -10 -56 3 -2 5 -33 11 -68 12 l-65 2 -3 68 c-4 82 15 92 21 10
3 -56 3 -55 5 15 1 40 6 72 12 72 6 0 11 -32 12 -72z m-92 52 c0 -6 -32 -11
-72 -12 l-73 -2 68 -3 c37 -2 67 -8 67 -13 0 -5 -30 -11 -67 -13 l-68 -3 72
-2 c63 -2 72 -4 66 -19 -4 -10 -2 -14 5 -9 22 14 21 -12 -3 -38 l-24 -26 25
-6 c24 -6 31 -18 15 -28 -14 -9 -75 20 -102 48 -31 33 -49 33 -49 0 0 -23 3
-25 31 -19 24 6 30 4 27 -6 -6 -17 -99 -32 -112 -19 -6 6 -3 12 7 16 21 8 23
54 2 54 -8 0 -15 5 -15 10 0 6 7 10 15 10 11 0 15 11 15 38 0 21 3 42 7 45 11
11 163 8 163 -3z m30 -130 c0 -5 -4 -10 -10 -10 -5 0 -10 5 -10 10 0 6 5 10
10 10 6 0 10 -4 10 -10z"/>
<path d="M785 1900 c-4 -6 5 -10 20 -10 15 0 24 4 20 10 -3 6 -12 10 -20 10
-8 0 -17 -4 -20 -10z"/>
<path d="M741 1853 c0 -11 3 -13 6 -5 2 6 20 12 38 12 32 0 34 -2 38 -37 l4
-38 1 43 2 42 -45 0 c-36 0 -45 -3 -44 -17z"/>
<path d="M770 1825 c0 -8 7 -15 15 -15 8 0 15 7 15 15 0 8 -7 15 -15 15 -8 0
-15 -7 -15 -15z"/>
<path d="M503 1863 c15 -2 37 -2 50 0 12 2 0 4 -28 4 -27 0 -38 -2 -22 -4z"/>
<path d="M545 1830 c3 -5 12 -10 20 -10 8 0 17 5 20 10 4 6 -5 10 -20 10 -15
0 -24 -4 -20 -10z"/>
<path d="M4824 2149 c-3 -6 -1 -16 5 -22 8 -8 11 -5 11 11 0 24 -5 28 -16 11z"/>
<path d="M1630 2111 c0 -23 2 -41 4 -41 8 0 12 71 4 76 -4 3 -8 -13 -8 -35z"/>
<path d="M3741 2138 c0 -9 -8 -24 -17 -33 -21 -20 -13 -29 10 -12 12 9 16 22
13 38 -2 13 -5 16 -6 7z"/>
<path d="M548 2105 c-32 -27 -35 -35 -13 -35 14 0 52 47 44 54 -2 3 -16 -6
-31 -19z"/>
<path d="M1547 2109 c-10 -6 -25 -8 -33 -5 -8 3 -12 2 -9 -3 3 -5 -4 -12 -15
-16 -17 -5 -20 -15 -20 -70 l0 -64 -60 -17 c-33 -9 -63 -20 -65 -24 -9 -14 76
-31 120 -24 l45 6 0 -48 c-1 -70 -43 -117 -120 -132 -135 -27 -121 -28 -114
10 4 18 13 38 20 44 8 6 14 19 14 28 0 19 11 21 28 4 15 -15 26 13 18 48 -5
19 -11 24 -26 19 -20 -6 -24 1 -21 36 1 9 -4 16 -11 16 -7 0 -14 -11 -14 -24
-4 -50 -14 -73 -34 -73 -17 0 -20 -7 -20 -39 0 -45 13 -60 30 -34 10 17 11 16
8 -2 -2 -12 -11 -20 -23 -20 -17 0 -21 8 -23 45 -4 51 -15 62 -50 49 -14 -6
-32 -7 -39 -5 -8 3 -11 1 -8 -4 3 -5 -11 -20 -32 -33 -21 -14 -40 -21 -43 -16
-9 13 -77 -9 -84 -27 -4 -11 0 -14 17 -12 12 2 28 7 35 12 7 4 20 2 29 -6 9
-7 14 -8 10 -2 -4 7 2 14 13 17 11 3 20 1 20 -5 0 -5 5 -6 10 -3 6 4 8 12 4
18 -3 7 0 5 8 -4 7 -9 19 -14 26 -12 6 3 12 0 12 -6 0 -5 -9 -8 -21 -6 -15 3
-18 1 -12 -8 5 -7 8 -22 7 -34 -1 -22 2 -22 72 -20 80 2 95 -4 72 -30 -25 -29
-56 -97 -50 -112 3 -10 -1 -12 -17 -8 -15 4 -33 -5 -63 -30 -53 -44 -90 -63
-123 -63 -17 0 -25 -5 -22 -12 4 -14 30 -14 96 0 l43 10 -6 -31 c-3 -17 -7
-31 -9 -32 -44 -27 -65 -48 -60 -61 4 -12 8 -11 20 6 17 24 38 26 47 5 7 -18
37 -20 55 -2 11 10 14 10 18 0 5 -14 43 -18 43 -4 0 9 74 6 90 -4 6 -4 19 0
28 8 9 8 33 18 53 22 31 6 37 4 42 -14 7 -28 47 -28 54 0 5 18 11 19 44 14 48
-8 60 12 33 53 -10 15 -17 31 -16 35 1 5 -2 6 -7 3 -5 -4 -12 -2 -16 4 -3 5 3
10 13 10 25 0 44 23 36 43 -4 10 -21 17 -47 19 -37 3 -42 6 -40 26 2 12 -2 22
-8 22 -21 0 39 49 96 79 l60 30 -50 2 c-27 1 -57 3 -65 5 -8 1 -31 3 -50 4
-33 2 -31 3 23 18 47 13 59 21 64 42 3 14 13 36 21 48 9 13 16 34 17 45 1 12
5 33 9 46 6 16 5 21 -2 17 -15 -9 35 154 51 170 4 4 7 17 7 28 0 20 -1 19 -13
-3 -15 -29 -29 -30 -42 -3 -27 51 -45 60 -78 41z m43 -30 c0 -10 -7 -19 -15
-19 -15 0 -21 31 -9 43 11 10 24 -3 24 -24z m-400 -324 c0 -16 -6 -25 -15 -25
-15 0 -21 31 -8 43 13 14 23 6 23 -18z m180 -106 c13 -9 12 -10 -2 -5 -12 3
-18 0 -18 -9 0 -8 -6 -12 -14 -9 -18 7 -30 -12 -15 -22 7 -4 9 -3 6 3 -4 6 13
9 43 9 26 0 46 -4 44 -8 -3 -5 9 -8 25 -8 17 0 31 -3 30 -7 0 -5 -26 -27 -57
-50 -56 -40 -58 -41 -91 -27 -18 8 -42 14 -52 14 -29 0 -26 48 4 59 12 5 26 6
31 3 5 -3 6 0 2 7 -4 6 -13 8 -19 4 -7 -4 -7 0 1 10 8 9 11 21 8 26 -4 5 6 12
21 14 16 2 30 5 33 5 3 1 12 -3 20 -9z m25 -19 c-3 -5 -12 -10 -18 -10 -7 0
-6 4 3 10 19 12 23 12 15 0z m82 -102 c-3 -8 -6 -5 -6 6 -1 11 2 17 5 13 3 -3
4 -12 1 -19z m-287 -43 c0 -18 17 -20 23 -2 3 9 7 9 19 0 11 -10 14 -27 10
-70 -3 -32 -8 -59 -12 -61 -4 -2 -6 -12 -3 -22 3 -11 0 -20 -6 -20 -10 0 -15
14 -12 33 0 4 -3 7 -9 7 -5 0 -10 7 -10 15 0 8 -5 15 -11 15 -7 0 -9 -9 -5
-23 3 -14 -1 -32 -8 -43 -17 -22 -32 -13 -21 13 5 10 7 23 5 28 -10 33 -4 112
10 127 19 21 30 22 30 3z m90 5 c0 -6 9 -6 25 0 20 8 27 6 35 -10 17 -31 1
-70 -34 -86 -26 -11 -27 -13 -9 -14 12 0 25 5 29 11 4 7 9 8 17 0 7 -7 6 -15
-3 -26 -10 -12 -10 -19 -2 -27 16 -16 15 -28 -3 -28 -8 0 -17 11 -21 24 -4 16
-11 23 -20 19 -9 -3 -12 -13 -8 -25 4 -15 2 -19 -7 -16 -8 3 -14 14 -14 26 0
11 -3 23 -5 26 -9 8 2 136 11 136 5 0 9 -4 9 -10z m210 -6 c0 -12 9 -15 41
-12 27 2 44 -1 46 -9 3 -9 -7 -13 -32 -13 l-37 0 36 -50 c37 -51 41 -86 6 -55
-12 11 -20 13 -25 5 -3 -5 -11 -8 -16 -4 -6 3 -13 -3 -16 -15 -7 -27 -33 -28
-33 -1 0 12 -5 17 -14 14 -8 -3 -17 0 -21 6 -4 7 2 14 14 17 16 4 21 13 21 36
l0 31 -29 -46 c-33 -52 -47 -63 -56 -47 -4 6 4 23 18 37 13 15 30 37 36 50 11
20 10 22 -19 22 -16 0 -30 5 -30 10 0 6 18 10 40 10 29 0 40 4 40 15 0 8 7 15
15 15 8 0 15 -7 15 -16z m-89 -72 c-5 -10 -16 -24 -23 -30 -11 -9 -14 -6 -12
16 2 34 0 32 24 32 17 0 19 -3 11 -18z"/>
<path d="M1198 1443 c7 -3 16 -2 19 1 4 3 -2 6 -13 5 -11 0 -14 -3 -6 -6z"/>
<path d="M1290 1460 c-12 -8 -11 -10 7 -10 12 0 25 5 28 10 8 13 -15 13 -35 0z"/>
<path d="M1280 1421 c0 -5 9 -7 20 -4 11 3 20 7 20 9 0 2 -9 4 -20 4 -11 0
-20 -4 -20 -9z"/>
<path d="M1490 1402 c0 -25 4 -32 20 -32 20 0 20 1 3 28 -9 15 -18 29 -20 31
-2 2 -3 -10 -3 -27z"/>
<path d="M4776 2103 c-6 -14 -5 -15 5 -6 7 7 10 15 7 18 -3 3 -9 -2 -12 -12z"/>
<path d="M4895 2074 c2 -19 -1 -34 -6 -34 -5 0 -9 -13 -9 -30 0 -29 1 -30 51
-30 l52 0 -7 31 c-3 17 -6 36 -6 41 0 6 -6 5 -15 -2 -20 -16 -38 -2 -32 25 3
16 -1 25 -13 28 -15 4 -17 -1 -15 -29z"/>
<path d="M2401 2064 c0 -11 3 -14 6 -6 3 7 2 16 -1 19 -3 4 -6 -2 -5 -13z"/>
<path d="M2475 2010 c4 -6 3 -16 -2 -23 -5 -7 -10 -21 -10 -32 -1 -11 -3 -27
-5 -35 -2 -11 9 -16 45 -18 43 -3 47 -1 47 20 0 32 -12 47 -35 45 -16 -2 -20
4 -20 26 1 16 -5 27 -13 27 -7 0 -10 -5 -7 -10z"/>
<path d="M4770 1990 c-9 -6 -10 -10 -3 -10 6 0 15 5 18 10 8 12 4 12 -15 0z"/>
<path d="M4830 1938 c0 -32 4 -58 9 -58 12 0 12 82 1 100 -7 10 -10 -3 -10
-42z"/>
<path d="M3179 1976 c-5 -4 -62 -13 -156 -22 -105 -11 -42 -25 85 -19 89 4
110 8 126 25 l20 20 -35 0 c-20 0 -38 -2 -40 -4z"/>
<path d="M4045 1951 c-3 -5 -1 -12 5 -16 5 -3 10 1 10 9 0 18 -6 21 -15 7z"/>
<path d="M149 1934 c44 -14 66 -11 56 7 -4 5 -27 9 -53 8 l-47 -1 44 -14z"/>
<path d="M3996 1903 c-6 -14 -5 -15 5 -6 7 7 10 15 7 18 -3 3 -9 -2 -12 -12z"/>
<path d="M2400 1855 c0 -32 2 -56 4 -54 8 7 10 98 3 105 -4 4 -7 -19 -7 -51z"/>
<path d="M5350 1875 c8 -10 27 -31 42 -45 15 -15 25 -30 22 -33 -4 -3 1 -24 9
-45 9 -22 14 -42 11 -44 -2 -3 2 -11 11 -18 13 -11 14 -9 9 17 -5 25 -2 31 15
36 12 3 21 10 21 15 0 6 -35 39 -77 73 -43 35 -71 54 -63 44z"/>
<path d="M3187 1855 c10 -13 26 -25 36 -25 9 0 17 -6 18 -12 0 -7 5 -2 10 12
12 30 -9 50 -53 50 -29 0 -29 0 -11 -25z"/>
<path d="M958 1863 c7 -3 16 -2 19 1 4 3 -2 6 -13 5 -11 0 -14 -3 -6 -6z"/>
<path d="M1700 1840 c0 -19 3 -21 12 -12 9 9 9 15 0 24 -9 9 -12 7 -12 -12z"/>
<path d="M2451 1826 c-1 -11 -8 -28 -18 -38 -15 -17 -15 -18 0 -18 17 0 33 40
24 62 -3 8 -6 5 -6 -6z"/>
<path d="M1645 1800 c-3 -5 -1 -10 4 -10 6 0 11 5 11 10 0 6 -2 10 -4 10 -3 0
-8 -4 -11 -10z"/>
<path d="M1774 1784 c-10 -8 -13 -12 -5 -8 10 5 12 3 5 -7 -5 -8 -9 -21 -9
-29 0 -8 -4 -21 -8 -27 -14 -23 3 -33 54 -33 49 0 49 0 43 28 -9 34 -10 36
-37 37 -18 0 -21 5 -19 28 3 32 2 32 -24 11z"/>
<path d="M1638 1683 c7 -3 16 -2 19 1 4 3 -2 6 -13 5 -11 0 -14 -3 -6 -6z"/>
<path d="M1707 1638 c8 -70 13 -74 13 -10 0 28 -4 53 -10 57 -5 3 -7 -15 -3
-47z"/>
<path d="M5463 1651 c0 -11 5 -18 9 -15 4 3 5 11 1 19 -7 21 -12 19 -10 -4z"/>
<path d="M1752 1589 c-6 -15 -17 -29 -24 -32 -9 -4 -8 -6 3 -6 22 -1 42 24 36
46 -3 15 -6 13 -15 -8z"/>
<path d="M3160 1560 c0 -6 8 -14 18 -17 9 -4 23 -13 30 -20 7 -6 20 -10 30 -7
10 4 13 2 7 -3 -5 -4 -21 -21 -35 -38 l-25 -29 40 32 c22 18 46 38 54 44 11 9
5 14 -30 23 -24 6 -54 15 -66 19 -15 5 -23 3 -23 -4z"/>
<path d="M2006 1311 c-4 -7 -5 -15 -2 -18 9 -9 19 4 14 18 -4 11 -6 11 -12 0z"/>
<path d="M3885 1220 c-3 -5 -1 -10 4 -10 6 0 11 5 11 10 0 6 -2 10 -4 10 -3 0
-8 -4 -11 -10z"/>
<path d="M4050 1213 c0 -5 5 -15 10 -23 9 -13 10 -13 10 0 0 13 2 13 11 0 9
-12 10 -12 5 3 -3 10 -6 21 -6 23 0 2 -7 4 -15 4 -8 0 -15 -3 -15 -7z"/>
<path d="M4347 1169 c7 -7 15 -10 18 -7 3 3 -2 9 -12 12 -14 6 -15 5 -6 -5z"/>
<path d="M753 1150 c-18 -8 -33 -18 -33 -22 0 -14 68 -8 73 5 10 25 -7 32 -40
17z"/>
<path d="M1945 1150 c-3 -5 -1 -10 4 -10 6 0 11 5 11 10 0 6 -2 10 -4 10 -3 0
-8 -4 -11 -10z"/>
<path d="M2004 1134 c3 -9 6 -33 6 -55 0 -28 4 -39 15 -39 8 0 15 5 15 11 0 5
-4 7 -10 4 -6 -4 -10 13 -10 44 0 31 -4 51 -11 51 -6 0 -8 -7 -5 -16z"/>
<path d="M678 1126 c-10 -7 -15 -16 -12 -19 4 -3 13 1 21 9 9 8 14 17 12 19
-2 2 -12 -2 -21 -9z"/>
<path d="M2091 1114 c0 -11 3 -14 6 -6 3 7 2 16 -1 19 -3 4 -6 -2 -5 -13z"/>
<path d="M600 1092 c-74 -44 -111 -73 -105 -83 10 -16 41 -10 66 14 32 28 82
62 90 60 4 -1 5 7 2 17 -3 11 -6 20 -7 19 0 0 -21 -12 -46 -27z"/>
<path d="M3218 1113 c12 -2 32 -2 45 0 12 2 2 4 -23 4 -25 0 -35 -2 -22 -4z"/>
<path d="M3388 1113 c7 -3 16 -2 19 1 4 3 -2 6 -13 5 -11 0 -14 -3 -6 -6z"/>
<path d="M860 1065 c-21 -22 -21 -25 -6 -31 21 -8 24 -5 30 29 6 33 5 33 -24
2z"/>
<path d="M590 1029 c0 -5 5 -7 10 -4 6 3 10 8 10 11 0 2 -4 4 -10 4 -5 0 -10
-5 -10 -11z"/>
<path d="M1131 1014 c0 -11 3 -14 6 -6 3 7 2 16 -1 19 -3 4 -6 -2 -5 -13z"/>
<path d="M632 990 c-18 -11 -32 -23 -31 -27 1 -15 34 -66 42 -64 4 0 14 1 23
1 8 0 12 5 9 10 -3 6 5 10 19 10 33 0 41 16 22 45 -26 40 -48 46 -84 25z"/>
<path d="M5494 991 c9 -15 -3 -53 -15 -46 -5 3 -6 -1 -2 -11 5 -14 7 -14 18 5
6 12 14 19 17 15 4 -3 4 4 1 15 -3 12 -10 24 -16 28 -6 3 -7 1 -3 -6z"/>
<path d="M1190 915 c-7 -30 -16 -56 -19 -56 -3 -1 -16 -3 -29 -4 -24 -2 -44
-15 -24 -15 7 0 12 -17 12 -45 0 -48 19 -62 39 -27 8 13 10 14 11 2 0 -49 -53
-54 -58 -5 -5 51 -10 59 -27 41 -8 -8 -15 -22 -15 -31 0 -9 -8 -19 -18 -22
-18 -4 -18 -9 -6 -76 7 -40 13 -79 13 -88 1 -16 -116 -95 -126 -86 -2 2 -7 24
-11 48 l-8 44 -87 24 c-48 13 -90 22 -93 18 -7 -7 20 -37 34 -37 12 0 34 -49
27 -61 -13 -20 78 -91 98 -76 2 1 11 -4 20 -12 15 -12 17 -11 18 5 0 15 2 15
6 4 4 -8 13 -21 22 -28 12 -10 13 -12 1 -6 -12 7 -13 5 -3 -8 7 -8 9 -19 5
-23 -31 -36 81 57 151 124 92 89 97 100 77 170 -8 28 -6 40 11 67 21 35 20 37
-25 48 -27 7 -28 8 -11 26 13 14 31 20 60 20 40 0 42 -2 37 -25 -2 -14 0 -25
5 -25 12 0 103 70 103 79 0 6 -103 71 -113 71 -3 0 -7 -9 -10 -20 -4 -14 -10
-18 -22 -14 -12 5 -15 14 -11 30 5 17 2 24 -7 24 -8 0 -19 -22 -27 -55z"/>
<path d="M5572 947 c-9 -11 -10 -17 -2 -22 15 -9 23 -1 18 21 -3 15 -4 16 -16
1z"/>
<path d="M5526 903 c-6 -14 -5 -15 5 -6 7 7 10 15 7 18 -3 3 -9 -2 -12 -12z"/>
<path d="M5644 906 c-3 -8 -4 -21 -1 -28 2 -7 1 -20 -3 -28 -4 -8 -10 -27 -14
-42 -5 -24 -3 -28 14 -28 11 0 20 -4 20 -10 0 -15 -67 -12 -74 3 -3 6 -4 -12
-3 -42 1 -33 7 -56 15 -59 6 -2 12 3 12 12 0 9 5 16 10 16 15 0 12 -26 -5 -40
-26 -21 -45 -4 -45 39 0 22 -4 43 -10 46 -5 3 -10 -1 -10 -9 0 -9 -4 -16 -9
-16 -5 0 -11 -10 -13 -22 -4 -33 -33 -30 -33 3 0 20 -4 25 -17 21 -10 -2 -18
-11 -18 -19 0 -10 -10 -5 -30 14 -28 26 -42 51 -21 39 5 -3 11 1 15 9 3 8 1
15 -3 15 -5 0 -16 3 -24 6 -10 3 -18 -2 -22 -17 -6 -18 0 -29 31 -56 37 -33
38 -34 12 -29 -35 8 -46 -11 -18 -31 14 -10 20 -22 17 -34 -6 -21 3 -25 19 -9
7 7 9 -2 6 -25 -3 -26 0 -35 11 -35 8 0 20 -6 26 -14 6 -7 31 -19 55 -26 39
-11 56 -9 148 14 57 14 114 26 127 26 12 0 31 5 42 10 13 7 25 7 38 0 27 -14
51 -2 51 25 0 16 -7 25 -26 29 -30 8 -27 30 4 34 20 3 22 9 22 83 0 43 -3 79
-6 79 -4 0 -13 -8 -20 -17 -13 -17 -14 -16 -20 5 -4 14 -12 21 -20 18 -7 -3
-17 2 -22 10 -8 14 -13 12 -38 -11 -16 -15 -21 -22 -11 -15 21 15 23 -2 2 -23
-12 -12 -21 -13 -44 -4 -24 9 -31 19 -36 49 -4 21 -5 50 -2 65 2 16 2 22 0 15
-4 -10 -8 -9 -19 5 -14 17 -14 16 -5 -4 18 -36 14 -63 -10 -63 -18 0 -20 5
-17 37 3 37 -17 59 -28 29z m66 -168 c0 -22 -19 -33 -33 -19 -7 7 -7 18 2 38
10 22 14 24 22 12 5 -7 9 -22 9 -31z"/>
<path d="M991 874 c0 -11 3 -14 6 -6 3 7 2 16 -1 19 -3 4 -6 -2 -5 -13z"/>
<path d="M2857 837 l-17 -32 20 24 c17 20 26 41 18 41 -2 0 -11 -15 -21 -33z"/>
<path d="M274 825 c-4 -8 -13 -15 -21 -15 -8 0 -12 4 -8 10 3 5 -7 5 -25 -1
-16 -6 -30 -16 -30 -21 0 -7 -4 -7 -12 0 -7 5 -28 9 -45 7 -18 -1 -33 1 -33 5
0 16 -45 15 -57 0 -9 -11 -12 -12 -13 -2 0 10 -3 10 -15 -2 -8 -8 -15 -17 -15
-20 0 -11 46 -6 59 7 11 10 14 10 18 0 3 -8 23 -13 49 -13 50 0 61 -19 12 -21
-31 -2 -31 -2 -5 -6 22 -4 27 -9 27 -34 0 -24 -4 -29 -25 -29 -14 0 -25 -4
-25 -9 0 -4 11 -6 25 -3 33 6 33 -16 0 -24 -14 -3 -25 -10 -25 -15 0 -13 24
-11 38 3 15 15 27 4 19 -16 -5 -12 -20 -15 -64 -14 -59 1 -103 -7 -103 -21 0
-9 206 -6 242 4 16 4 32 19 40 35 l12 29 11 -32 c8 -26 16 -33 43 -35 19 -2
41 0 50 4 10 4 22 6 27 4 6 -1 56 -4 112 -5 79 -2 105 0 114 11 14 17 5 169
-11 189 -5 6 -8 14 -6 16 3 2 -15 3 -38 3 -24 -1 -49 2 -57 7 -12 7 -12 9 0 9
8 0 12 3 8 6 -3 3 -16 -1 -29 -10 -27 -19 -83 -22 -72 -3 4 7 3 9 -2 4 -9 -9
-11 -13 -13 -49 -1 -21 -3 -21 -12 -5 -5 9 -7 22 -4 27 6 10 -15 13 -71 10
-20 -1 -33 4 -37 14 -8 20 -26 21 -33 1z m26 1 c0 -3 -4 -8 -10 -11 -5 -3 -10
-1 -10 4 0 6 5 11 10 11 6 0 10 -2 10 -4z m288 -36 l45 0 -6 -40 c-3 -24 -1
-38 5 -34 5 4 8 -15 6 -48 l-3 -53 -100 4 c-55 2 -101 4 -102 5 0 0 2 37 5 81
7 80 7 80 37 83 17 2 34 8 40 13 5 5 13 5 19 -1 6 -5 30 -10 54 -10z m-358
-50 c0 -33 -4 -60 -10 -60 -6 0 -10 27 -10 60 0 33 4 60 10 60 6 0 10 -27 10
-60z m148 55 c21 -5 23 -11 20 -53 -3 -42 -6 -47 -29 -50 -22 -3 -25 -7 -21
-28 5 -26 32 -34 32 -9 0 8 7 15 15 15 19 0 20 -34 1 -49 -8 -7 -27 -11 -43
-9 -24 3 -28 8 -31 41 -3 29 -7 37 -23 37 -11 0 -19 -7 -19 -17 0 -23 -39 -63
-62 -63 -24 0 -23 7 9 34 24 21 26 29 24 81 -1 32 2 61 8 64 13 8 91 12 119 6z
m-191 -97 c-2 -13 -4 -3 -4 22 0 25 2 35 4 23 2 -13 2 -33 0 -45z m238 3 c3
-5 1 -12 -5 -16 -5 -3 -10 1 -10 9 0 18 6 21 15 7z m-215 -41 c13 -8 13 -10
-2 -10 -9 0 -20 5 -23 10 -8 13 5 13 25 0z"/>
<path d="M518 763 c7 -3 16 -2 19 1 4 3 -2 6 -13 5 -11 0 -14 -3 -6 -6z"/>
<path d="M460 653 c0 -7 7 -13 15 -13 8 0 15 6 15 13 0 8 -7 14 -15 14 -8 0
-15 -6 -15 -14z"/>
<path d="M520 655 c0 -8 9 -15 20 -15 11 0 20 7 20 15 0 8 -9 15 -20 15 -11 0
-20 -7 -20 -15z"/>
<path d="M590 649 c0 -24 23 -21 28 4 2 10 -3 17 -12 17 -10 0 -16 -9 -16 -21z"/>
<path d="M303 763 c15 -2 37 -2 50 0 12 2 0 4 -28 4 -27 0 -38 -2 -22 -4z"/>
<path d="M303 723 c15 -2 37 -2 50 0 12 2 0 4 -28 4 -27 0 -38 -2 -22 -4z"/>
<path d="M360 830 c-8 -5 -10 -10 -5 -10 6 0 17 5 25 10 8 5 11 10 5 10 -5 0
-17 -5 -25 -10z"/>
<path d="M5760 820 c-25 -19 -23 -37 3 -27 11 4 33 48 24 47 -1 0 -13 -9 -27
-20z"/>
<path d="M5440 795 c0 -8 2 -15 4 -15 2 0 6 7 10 15 3 8 1 15 -4 15 -6 0 -10
-7 -10 -15z"/>
<path d="M5520 785 c-11 -13 -10 -14 4 -9 9 3 16 10 16 15 0 13 -6 11 -20 -6z"/>
<path d="M1605 760 c3 -5 8 -10 11 -10 2 0 4 5 4 10 0 6 -5 10 -11 10 -5 0 -7
-4 -4 -10z"/>
<path d="M5335 759 c4 -10 2 -20 -4 -24 -6 -3 -11 -11 -11 -18 0 -6 7 -1 16
12 13 17 14 25 5 34 -9 9 -11 8 -6 -4z"/>
<path d="M8 753 c7 -3 16 -2 19 1 4 3 -2 6 -13 5 -11 0 -14 -3 -6 -6z"/>
<path d="M0 720 c0 -5 7 -10 15 -10 8 0 15 5 15 10 0 6 -7 10 -15 10 -8 0 -15
-4 -15 -10z"/>
<path d="M60 720 c0 -5 5 -10 10 -10 6 0 10 5 10 10 0 6 -4 10 -10 10 -5 0
-10 -4 -10 -10z"/>
<path d="M110 720 c0 -5 7 -10 15 -10 8 0 15 5 15 10 0 6 -7 10 -15 10 -8 0
-15 -4 -15 -10z"/>
<path d="M5354 709 c-3 -6 -1 -16 5 -22 8 -8 11 -5 11 11 0 24 -5 28 -16 11z"/>
<path d="M2775 700 c3 -5 8 -10 11 -10 2 0 4 5 4 10 0 6 -5 10 -11 10 -5 0 -7
-4 -4 -10z"/>
<path d="M3099 687 c-6 -88 -4 -147 5 -147 7 0 8 -3 1 -8 -10 -6 -11 -13 -7
-51 1 -9 11 -12 27 -9 18 4 25 1 25 -11 0 -13 2 -13 9 -2 5 8 18 12 30 8 12
-3 21 -2 21 2 0 4 23 7 51 6 27 -1 53 3 56 8 3 6 1 7 -5 3 -7 -4 -12 -3 -12 2
0 6 7 12 15 16 13 5 20 -5 16 -26 -2 -13 17 -9 23 5 4 6 5 3 2 -9 -2 -12 2
-21 9 -21 7 0 11 6 8 14 -3 7 0 13 6 13 6 0 11 -4 11 -8 0 -4 9 -8 20 -8 11 0
20 6 20 14 0 7 5 10 10 7 6 -4 7 -11 4 -17 -4 -7 -2 -8 4 -4 7 4 12 2 12 -5 0
-7 6 -5 13 5 11 15 17 16 35 7 28 -15 45 -14 68 5 18 15 18 15 -3 5 -32 -16
-35 -13 -13 9 11 11 18 25 15 32 -2 7 -6 39 -9 71 -4 48 -2 58 10 53 8 -3 14
-1 14 4 0 6 -4 10 -9 10 -5 0 -11 9 -14 20 -5 18 -15 19 -236 19 -173 0 -231
-3 -232 -12z m116 -102 l0 -90 -27 -3 c-16 -2 -28 1 -28 7 0 6 7 11 15 11 9 0
15 9 15 25 0 35 -14 31 -39 -10 -11 -19 -25 -35 -31 -35 -13 0 -13 3 2 35 10
22 9 28 -2 35 -12 7 -12 10 3 16 22 8 22 34 0 34 -16 1 -16 2 2 16 19 14 19
16 2 25 -29 17 -8 30 41 27 l47 -3 0 -90z m94 48 c0 -27 1 -61 3 -77 2 -18 -3
-31 -12 -36 -8 -4 -25 -12 -37 -18 -13 -7 -25 -12 -28 -12 -8 0 -6 176 2 183
3 4 21 7 40 7 33 0 33 0 32 -47z m241 37 c0 -5 -15 -11 -32 -11 -30 -2 -30 -2
-6 -6 24 -4 27 -9 33 -57 10 -75 4 -100 -22 -104 -16 -2 -23 2 -23 13 0 9 4
14 9 10 5 -3 12 -1 16 5 4 6 -5 10 -19 10 -19 0 -26 -5 -26 -20 0 -23 -10 -26
-28 -8 -10 10 -17 10 -34 -1 -16 -10 -22 -10 -28 -1 -4 7 -12 10 -17 7 -5 -3
-15 -2 -23 4 -11 6 -7 9 15 10 25 1 26 2 7 6 -19 4 -23 9 -18 26 3 11 0 27 -6
34 -6 8 -7 13 -1 13 6 0 8 11 6 24 -4 21 -1 25 23 29 28 4 28 4 -4 6 -19 0
-31 5 -27 11 3 6 50 10 106 10 59 0 99 -4 99 -10z m-223 -62 c-3 -7 -5 -2 -5
12 0 14 2 19 5 13 2 -7 2 -19 0 -25z"/>
<path d="M3170 640 c0 -5 5 -10 10 -10 6 0 10 5 10 10 0 6 -4 10 -10 10 -5 0
-10 -4 -10 -10z"/>
<path d="M3170 595 c0 -8 5 -15 10 -15 6 0 10 7 10 15 0 8 -4 15 -10 15 -5 0
-10 -7 -10 -15z"/>
<path d="M3273 653 c-16 -6 -18 -123 -3 -123 18 0 23 30 11 54 -9 15 -9 29 -2
49 6 15 9 27 8 26 -1 0 -8 -3 -14 -6z"/>
<path d="M3388 603 c6 -2 18 -2 25 0 6 3 1 5 -13 5 -14 0 -19 -2 -12 -5z"/>
<path d="M3453 555 c0 -22 2 -30 4 -17 2 12 2 30 0 40 -3 9 -5 -1 -4 -23z"/>
<path d="M3490 580 c0 -5 7 -10 15 -10 8 0 15 5 15 10 0 6 -7 10 -15 10 -8 0
-15 -4 -15 -10z"/>
<path d="M3495 550 c-3 -6 1 -7 9 -4 18 7 21 14 7 14 -6 0 -13 -4 -16 -10z"/>
<path d="M2 660 c0 -19 2 -27 5 -17 2 9 2 25 0 35 -3 9 -5 1 -5 -18z"/>
<path d="M30 686 c0 -2 11 -6 25 -8 14 -3 25 -1 25 3 0 5 -11 9 -25 9 -14 0
-25 -2 -25 -4z"/>
<path d="M4187 673 c-4 -3 -7 -11 -7 -17 0 -6 5 -5 12 2 6 6 9 14 7 17 -3 3
-9 2 -12 -2z"/>
<path d="M4970 676 c0 -2 7 -7 16 -10 8 -3 12 -2 9 4 -6 10 -25 14 -25 6z"/>
<path d="M2740 651 c-12 -24 -13 -34 -1 -27 9 6 22 46 15 46 -2 0 -8 -9 -14
-19z"/>
<path d="M5080 645 c-10 -20 -11 -28 -2 -37 7 -7 12 -17 12 -23 0 -16 -54 -45
-84 -45 -14 0 -26 -5 -26 -11 0 -5 4 -8 9 -5 5 3 11 -1 15 -9 3 -8 12 -15 21
-15 8 0 16 -8 16 -17 2 -32 4 -38 17 -60 30 -53 143 -69 174 -24 7 10 22 23
33 29 19 11 19 11 1 12 -18 0 -18 1 -3 18 21 23 17 67 -8 106 -21 32 -52 46
-101 46 -31 0 -34 2 -34 30 0 37 -21 40 -40 5z"/>
<path d="M58 653 c-25 -6 -23 -22 2 -20 11 1 20 7 20 14 0 7 -1 12 -2 12 -2
-1 -11 -3 -20 -6z"/>
<path d="M4211 655 c1 -19 18 -51 18 -35 0 8 -4 22 -9 30 -5 8 -9 11 -9 5z"/>
<path d="M4180 610 c0 -11 4 -20 9 -20 5 0 7 9 4 20 -3 11 -7 20 -9 20 -2 0
-4 -9 -4 -20z"/>
<path d="M4963 615 c0 -8 4 -12 9 -9 5 3 6 10 3 15 -9 13 -12 11 -12 -6z"/>
<path d="M150 570 c-8 -5 -10 -10 -5 -10 6 0 17 5 25 10 8 5 11 10 5 10 -5 0
-17 -5 -25 -10z"/>
<path d="M2691 568 c-1 -10 -6 -18 -12 -18 -5 0 -8 -4 -5 -9 4 -5 0 -12 -6
-15 -7 -2 -3 -4 9 -2 31 3 35 9 24 37 -7 17 -10 19 -10 7z"/>
<path d="M8 563 c7 -3 16 -2 19 1 4 3 -2 6 -13 5 -11 0 -14 -3 -6 -6z"/>
<path d="M4211 513 c-1 -6 -4 -20 -7 -30 -5 -17 -5 -17 6 0 6 10 9 23 6 30 -3
9 -5 9 -5 0z"/>
<path d="M5920 505 c0 -8 5 -15 10 -15 6 0 10 7 10 15 0 8 -4 15 -10 15 -5 0
-10 -7 -10 -15z"/>
<path d="M4088 503 c7 -3 16 -2 19 1 4 3 -2 6 -13 5 -11 0 -14 -3 -6 -6z"/>
<path d="M4710 500 c-9 -6 -10 -10 -3 -10 6 0 15 5 18 10 8 12 4 12 -15 0z"/>
<path d="M2636 484 c-5 -14 -4 -15 9 -4 17 14 19 20 6 20 -5 0 -12 -7 -15 -16z"/>
<path d="M4005 480 c-3 -6 1 -7 9 -4 18 7 21 14 7 14 -6 0 -13 -4 -16 -10z"/>
<path d="M4261 474 c0 -11 3 -14 6 -6 3 7 2 16 -1 19 -3 4 -6 -2 -5 -13z"/>
<path d="M4068 469 c-10 -5 -18 -7 -18 -3 0 3 -7 1 -15 -6 -8 -6 -20 -9 -27
-5 -7 4 -2 -2 11 -13 20 -16 30 -18 56 -9 17 5 37 18 43 28 11 17 9 19 -10 19
-13 0 -31 -5 -40 -11z"/>
<path d="M4219 464 c-3 -10 3 -35 13 -54 21 -41 23 -32 4 29 -9 31 -14 39 -17
25z"/>
<path d="M4668 465 c-48 -5 -90 -14 -95 -18 -4 -4 0 -5 9 -2 9 4 18 0 21 -9 4
-9 13 -16 22 -16 8 0 15 -4 15 -10 0 -5 9 -10 19 -10 11 0 23 -4 26 -10 3 -5
2 -10 -3 -10 -14 0 -6 -61 9 -71 8 -5 35 -9 61 -9 41 0 50 4 72 32 19 25 22
34 12 42 -8 6 -20 26 -27 44 -8 18 -21 32 -31 32 -9 0 -18 6 -20 13 -2 9 -22
10 -90 2z"/>
<path d="M5906 463 c-6 -14 -5 -15 5 -6 7 7 10 15 7 18 -3 3 -9 -2 -12 -12z"/>
<path d="M2805 460 c-3 -5 -1 -10 4 -10 6 0 11 5 11 10 0 6 -2 10 -4 10 -3 0
-8 -4 -11 -10z"/>
<path d="M3234 456 c11 -9 24 -16 30 -16 12 0 7 5 -24 19 -24 11 -24 11 -6 -3z"/>
<path d="M2616 443 c-6 -14 -5 -15 5 -6 7 7 10 15 7 18 -3 3 -9 -2 -12 -12z"/>
<path d="M3488 453 c7 -3 16 -2 19 1 4 3 -2 6 -13 5 -11 0 -14 -3 -6 -6z"/>
<path d="M2900 425 c0 -8 -4 -15 -10 -15 -18 0 -29 -34 -16 -52 12 -16 14 -16
36 4 19 17 22 18 17 5 -7 -19 8 -23 19 -5 13 20 12 48 -2 48 -6 0 -14 7 -18
15 -3 8 -10 15 -16 15 -5 0 -10 -7 -10 -15z"/>
<path d="M218 423 c7 -3 16 -2 19 1 4 3 -2 6 -13 5 -11 0 -14 -3 -6 -6z"/>
<path d="M3312 413 c-9 -3 -4 -10 13 -19 34 -18 34 -18 28 6 -5 20 -16 23 -41
13z"/>
<path d="M3983 405 c-11 -8 -23 -11 -27 -8 -3 3 -6 1 -6 -5 0 -7 6 -12 14 -12
8 0 17 -6 19 -12 4 -10 6 -10 6 0 1 7 6 10 11 7 13 -8 25 24 13 36 -5 5 -17 3
-30 -6z"/>
<path d="M211 401 c-31 -8 -40 -31 -12 -31 12 0 24 0 29 0 4 0 8 9 8 20 1 11
1 20 0 19 0 -1 -12 -4 -25 -8z"/>
<path d="M2572 379 c-13 -16 -19 -29 -14 -29 10 0 46 49 40 55 -2 1 -13 -11
-26 -26z"/>
<path d="M5865 400 c-4 -6 6 -10 22 -10 22 0 25 2 13 10 -19 12 -27 12 -35 0z"/>
<path d="M4291 364 c0 -11 3 -14 6 -6 3 7 2 16 -1 19 -3 4 -6 -2 -5 -13z"/>
<path d="M3017 359 c-9 -5 -22 -7 -28 -3 -16 10 -29 -16 -29 -58 0 -34 3 -38
26 -38 19 0 25 4 21 14 -4 10 -1 13 9 9 9 -3 14 1 15 13 0 11 2 31 3 47 1 15
2 27 1 27 0 0 -8 -5 -18 -11z"/>
<path d="M4249 366 c-8 -8 14 -116 23 -116 4 0 8 -7 8 -16 0 -14 -1 -14 -16 0
-19 20 -25 20 -18 1 4 -8 1 -15 -5 -15 -14 0 -14 42 -1 58 7 8 7 9 -1 3 -6 -5
-18 -7 -25 -4 -10 4 -14 -4 -14 -27 0 -49 -15 -66 -78 -89 -47 -18 -63 -20
-86 -11 -23 8 -34 7 -55 -7 -18 -12 -54 -19 -123 -23 -83 -4 -99 -3 -109 12
-12 16 -38 14 -51 -6 -4 -6 -8 -29 -8 -51 0 -28 -3 -36 -9 -25 -6 8 -7 18 -4
23 2 4 -12 1 -32 -7 -44 -19 -48 -19 -40 -6 3 5 1 10 -4 10 -6 0 -11 -5 -11
-11 0 -5 -5 -7 -10 -4 -7 5 -8 11 -1 19 5 6 6 18 2 25 -6 9 -11 4 -19 -17 -9
-28 -43 -57 -54 -47 -2 2 -4 -5 -4 -15 0 -17 7 -20 53 -20 45 0 53 3 53 19 0
10 7 22 16 25 24 9 24 8 14 -19 l-10 -25 360 0 360 0 -7 31 c-14 70 -90 339
-94 335z m38 -178 c-3 -8 -6 -5 -6 6 -1 11 2 17 5 13 3 -3 4 -12 1 -19z"/>
<path d="M5475 350 c-3 -5 -1 -10 4 -10 6 0 11 5 11 10 0 6 -2 10 -4 10 -3 0
-8 -4 -11 -10z"/>
<path d="M5544 348 c10 -6 22 -6 26 -2 5 5 -3 10 -18 11 -22 1 -24 0 -8 -9z"/>
<path d="M5666 344 c-3 -9 -4 -19 -2 -23 3 -4 -4 -12 -15 -19 -10 -7 -19 -8
-19 -3 0 5 6 11 13 14 6 3 -8 3 -33 0 -34 -3 -41 -2 -30 6 9 7 10 11 3 11 -6
0 -15 -4 -18 -10 -3 -5 -11 -10 -16 -10 -6 0 -7 5 -3 12 4 7 3 8 -5 4 -6 -4
-18 -3 -25 3 -10 9 -15 8 -20 -4 -3 -8 -10 -15 -16 -15 -6 0 -8 5 -5 10 3 6 1
10 -4 10 -6 0 -11 -4 -11 -10 0 -5 -11 -10 -23 -10 -16 0 -28 -9 -35 -25 -8
-16 -8 -25 -1 -25 6 0 6 -6 1 -17 -10 -19 -8 -51 4 -61 4 -4 4 1 1 11 -5 12
-3 16 4 11 7 -4 9 -23 6 -47 -3 -23 -2 -35 2 -29 6 10 11 9 21 -3 14 -16 35
-21 25 -5 -3 5 1 10 10 10 9 0 14 -4 10 -9 -15 -26 78 -41 129 -22 15 6 26 6
28 1 4 -11 73 -14 112 -4 21 5 27 4 22 -5 -4 -6 -12 -9 -17 -6 -5 4 -9 1 -9
-5 0 -7 6 -10 14 -7 8 3 32 8 53 11 25 4 30 3 14 -2 -55 -17 -25 -45 34 -31
28 6 29 7 5 9 -18 2 -20 4 -7 7 18 5 24 23 6 23 -5 0 -7 5 -3 11 4 8 9 7 15
-2 6 -10 11 -6 18 14 15 40 14 43 -11 21 -22 -19 -22 -19 1 13 12 18 23 33 24
33 1 0 2 -24 2 -54 0 -39 -3 -52 -12 -49 -7 3 -13 0 -13 -6 0 -6 5 -11 10 -11
6 0 10 -4 10 -10 0 -5 -3 -9 -7 -8 -21 6 -73 -13 -73 -27 0 -12 12 -15 55 -15
l55 0 0 141 c0 134 -1 141 -19 136 -14 -3 -21 2 -26 20 -3 14 -9 23 -12 20
-10 -11 7 -57 22 -57 9 0 15 -9 14 -22 -1 -18 -2 -19 -6 -5 -2 9 -9 15 -14 11
-5 -3 -16 2 -25 10 -8 9 -11 16 -6 16 5 0 1 18 -10 39 -18 37 -21 39 -46 30
-15 -6 -28 -10 -29 -10 -13 4 -23 -1 -19 -8 3 -5 -1 -12 -10 -15 -12 -5 -15
-2 -10 10 4 12 2 15 -9 10 -10 -4 -15 1 -15 16 l0 21 -19 -22 c-12 -13 -22
-18 -26 -11 -3 5 -1 10 4 10 6 0 11 5 11 10 0 16 -17 12 -24 -6z m-101 -54
c50 0 68 -16 33 -29 l-23 -8 23 -7 c22 -7 31 -26 12 -26 -5 0 -10 -14 -10 -30
0 -17 3 -29 8 -28 8 3 12 -5 12 -27 0 -11 -13 -15 -54 -15 -39 0 -55 4 -60 15
-3 9 -18 15 -36 15 -28 0 -30 3 -30 34 0 19 -6 37 -12 40 -9 3 -7 9 6 20 18
15 18 16 2 16 -32 0 -10 25 25 28 19 2 38 8 44 13 6 6 11 6 13 -1 2 -5 23 -10
47 -10z m275 -17 c0 -8 -16 -14 -42 -15 l-43 -1 45 -7 c46 -6 40 -16 -15 -23
-20 -3 -14 -4 18 -6 61 -1 62 -21 0 -21 -55 0 -54 -8 2 -12 49 -4 58 -25 13
-31 l-33 -3 33 -8 c17 -5 32 -14 32 -22 0 -16 -57 -2 -78 20 -13 13 -18 12
-41 -4 -38 -28 -81 -36 -81 -16 0 10 9 16 23 16 12 0 29 5 37 10 11 7 5 10
-22 10 -43 0 -52 19 -10 21 15 1 32 1 39 0 6 -1 14 3 18 9 4 6 -11 10 -39 10
-61 0 -59 20 2 22 43 1 44 2 10 5 -21 2 -38 8 -38 13 0 5 17 11 38 13 l37 4
-42 1 c-23 1 -45 7 -48 12 -10 16 46 33 71 21 14 -6 29 -5 45 3 27 13 69 0 69
-21z m-192 -38 c-3 -3 -9 2 -12 12 -6 14 -5 15 5 6 7 -7 10 -15 7 -18z m258
-19 c18 -18 18 -27 1 -20 -7 2 -18 -7 -25 -23 l-12 -28 6 30 c4 17 7 36 7 43
0 16 5 15 23 -2z m-266 -20 c0 -3 -4 -8 -10 -11 -5 -3 -10 -1 -10 4 0 6 5 11
10 11 6 0 10 -2 10 -4z"/>
<path d="M5485 250 c-3 -5 -2 -10 4 -10 5 0 13 5 16 10 3 6 2 10 -4 10 -5 0
-13 -4 -16 -10z"/>
<path d="M5525 250 c3 -5 11 -10 16 -10 6 0 7 5 4 10 -3 6 -11 10 -16 10 -6 0
-7 -4 -4 -10z"/>
<path d="M5530 208 c0 -4 9 -8 20 -8 11 0 20 4 20 8 0 4 -9 8 -20 8 -11 0 -20
-4 -20 -8z"/>
<path d="M5468 203 c6 -2 18 -2 25 0 6 3 1 5 -13 5 -14 0 -19 -2 -12 -5z"/>
<path d="M5468 173 c6 -2 18 -2 25 0 6 3 1 5 -13 5 -14 0 -19 -2 -12 -5z"/>
<path d="M5538 173 c6 -2 18 -2 25 0 6 3 1 5 -13 5 -14 0 -19 -2 -12 -5z"/>
<path d="M5548 143 c12 -2 30 -2 40 0 9 3 -1 5 -23 4 -22 0 -30 -2 -17 -4z"/>
<path d="M5900 350 c0 -5 4 -10 9 -10 6 0 13 5 16 10 3 6 -1 10 -9 10 -9 0
-16 -4 -16 -10z"/>
<path d="M2546 326 c6 -15 4 -17 -6 -11 -9 6 -11 4 -5 -4 5 -9 10 -10 18 -2 8
8 7 14 -2 24 -10 10 -11 8 -5 -7z"/>
<path d="M3814 329 c-3 -6 -16 -8 -28 -5 -11 3 -28 1 -36 -4 -13 -8 -12 -10 3
-10 9 0 17 -4 17 -9 0 -5 10 -11 23 -13 13 -2 21 -9 19 -18 -2 -8 0 -12 4 -7
4 4 9 17 11 29 2 12 8 25 14 29 7 4 5 8 -5 12 -8 3 -18 1 -22 -4z"/>
<path d="M4301 314 c0 -11 3 -14 6 -6 3 7 2 16 -1 19 -3 4 -6 -2 -5 -13z"/>
<path d="M4383 317 c-22 -12 -22 -13 -3 -25 31 -19 52 -15 48 10 -4 27 -16 31
-45 15z"/>
<path d="M5428 323 c7 -3 16 -2 19 1 4 3 -2 6 -13 5 -11 0 -14 -3 -6 -6z"/>
<path d="M3052 300 c0 -14 2 -19 5 -12 2 6 2 18 0 25 -3 6 -5 1 -5 -13z"/>
<path d="M5907 314 c-8 -8 1 -24 14 -24 5 0 9 7 9 15 0 15 -12 20 -23 9z"/>
<path d="M2924 296 c-6 -17 2 -36 17 -36 12 0 12 37 -1 45 -6 3 -13 -1 -16 -9z"/>
<path d="M2513 283 c-3 -10 -13 -26 -21 -35 -8 -10 -12 -18 -8 -18 13 0 36 28
36 45 0 10 5 13 12 9 7 -4 8 -3 4 4 -10 16 -16 15 -23 -5z"/>
<path d="M483 268 c2 -7 16 -13 32 -13 16 0 30 6 33 13 2 8 -8 12 -33 12 -25
0 -35 -4 -32 -12z"/>
<path d="M3580 259 c-10 -17 -14 -18 -27 -7 -15 12 -15 11 -4 -9 11 -21 12
-22 29 -5 10 9 18 23 18 30 1 17 -4 15 -16 -9z"/>
<path d="M4118 273 c7 -3 16 -2 19 1 4 3 -2 6 -13 5 -11 0 -14 -3 -6 -6z"/>
<path d="M3465 260 c-3 -5 -1 -10 4 -10 6 0 11 5 11 10 0 6 -2 10 -4 10 -3 0
-8 -4 -11 -10z"/>
<path d="M3920 258 c0 -9 8 -26 18 -38 16 -20 21 -21 43 -9 13 7 33 12 44 11
19 -2 19 -2 2 9 -10 6 -30 8 -44 4 -21 -5 -24 -3 -19 11 4 11 2 15 -8 11 -7
-3 -19 0 -25 6 -8 8 -11 7 -11 -5z"/>
<path d="M3420 235 c-19 -22 -8 -25 13 -3 9 10 13 18 8 18 -5 0 -14 -7 -21
-15z"/>
<path d="M4043 243 c9 -2 25 -2 35 0 9 3 1 5 -18 5 -19 0 -27 -2 -17 -5z"/>
<path d="M4320 235 c0 -8 4 -15 10 -15 5 0 7 7 4 15 -4 8 -8 15 -10 15 -2 0
-4 -7 -4 -15z"/>
<path d="M5365 240 c-3 -6 1 -7 9 -4 18 7 21 14 7 14 -6 0 -13 -4 -16 -10z"/>
<path d="M2516 223 c-6 -14 -5 -15 5 -6 7 7 10 15 7 18 -3 3 -9 -2 -12 -12z"/>
<path d="M3786 213 c-6 -14 -5 -15 5 -6 7 7 10 15 7 18 -3 3 -9 -2 -12 -12z"/>
<path d="M2470 210 c0 -5 5 -10 11 -10 5 0 7 5 4 10 -3 6 -8 10 -11 10 -2 0
-4 -4 -4 -10z"/>
<path d="M3810 208 c0 -23 16 -31 37 -19 15 9 10 13 -13 10 -4 0 -11 5 -15 13
-7 10 -9 9 -9 -4z"/>
<path d="M5367 213 c-3 -5 -1 -17 4 -28 6 -17 7 -16 6 8 -1 28 -3 32 -10 20z"/>
<path d="M0 136 l0 -74 56 -4 c30 -1 60 2 65 7 7 7 8 3 3 -10 -8 -20 -8 -20
20 -1 16 10 25 13 22 7 -5 -7 3 -9 24 -6 16 3 44 7 60 10 19 3 29 1 25 -5 -7
-11 8 -14 18 -3 4 3 0 11 -9 18 -14 10 -14 13 -2 26 20 20 18 49 -2 49 -13 0
-16 -6 -12 -26 4 -24 2 -26 -29 -24 -19 1 -38 1 -44 0 -5 -1 -18 -1 -28 0 -10
1 -26 -4 -35 -12 -13 -11 -14 -11 -7 1 6 11 3 13 -13 9 -12 -4 -22 -2 -22 3 0
5 5 9 10 9 14 0 13 37 -2 42 -15 5 -1 28 18 28 9 0 14 -10 14 -29 0 -17 3 -32
8 -34 4 -3 7 12 6 32 0 35 1 38 25 34 14 -2 43 -4 64 -3 22 0 37 -4 37 -11 0
-8 4 -8 15 1 24 20 42 6 37 -29 -4 -30 11 -44 21 -18 4 9 8 9 15 -2 6 -8 12
-9 16 -3 3 6 1 14 -5 17 -5 4 -8 13 -5 21 3 8 0 11 -8 8 -7 -3 -16 1 -19 9 -5
15 12 16 51 3 19 -6 21 -10 11 -22 -19 -23 2 -16 25 9 19 20 30 23 89 21 43
-2 65 1 61 7 -3 6 3 5 14 -2 17 -11 24 -10 38 2 13 10 16 11 10 1 -6 -10 -2
-13 15 -12 64 6 86 -15 54 -50 -17 -19 -17 -20 -1 -20 9 0 15 -4 12 -9 -3 -4
-18 -7 -33 -5 -16 2 -56 5 -90 5 -47 1 -63 5 -63 15 0 17 12 18 28 2 9 -9 12
-9 12 -1 0 7 -5 15 -10 18 -8 5 -7 12 2 23 10 14 10 15 -1 5 -7 -6 -20 -9 -29
-6 -10 4 -13 2 -8 -5 4 -7 2 -12 -3 -12 -6 0 -11 -7 -11 -15 0 -8 -9 -19 -20
-25 -16 -9 -20 -8 -20 5 0 8 -5 15 -11 15 -5 0 -8 -4 -4 -9 3 -5 1 -12 -5 -16
-5 -3 -10 2 -10 12 0 14 -2 15 -9 4 -7 -11 -9 -11 -13 0 -4 11 -8 11 -19 2 -8
-6 -36 -13 -62 -14 -26 -2 -47 -6 -47 -9 0 -3 16 -12 35 -20 19 -8 35 -18 35
-23 0 -5 6 -4 14 2 8 7 48 10 105 9 50 -2 91 0 91 3 0 3 24 4 53 2 96 -5 116
-5 126 2 6 3 11 37 11 76 l0 69 -380 0 -380 0 0 -74z m644 -58 c-3 -4 -9 -8
-15 -8 -5 0 -9 4 -9 8 0 5 7 9 15 9 8 0 12 -4 9 -9z"/>
<path d="M3342 198 c-7 -7 -12 -17 -12 -22 0 -8 3 -7 8 0 4 6 16 16 27 22 15
8 16 11 5 12 -9 0 -21 -5 -28 -12z"/>
<path d="M3473 191 c-13 -21 -40 -22 -53 -2 -5 9 -10 10 -14 2 -4 -6 -2 -11 4
-11 6 0 8 -5 5 -10 -4 -6 -10 -8 -15 -5 -4 3 -13 -2 -20 -10 -15 -18 -40 -20
-40 -3 0 6 -2 9 -5 6 -10 -9 7 -38 19 -32 6 3 2 -2 -8 -10 -11 -9 -26 -16 -33
-16 -7 0 -14 -8 -15 -17 -2 -33 -4 -38 -12 -52 -7 -11 -5 -13 7 -8 9 3 19 2
22 -3 3 -5 17 -9 30 -8 23 2 29 10 26 31 0 4 4 7 10 7 5 0 7 5 4 10 -3 6 -2
10 4 10 5 0 12 -6 14 -12 4 -8 6 -9 6 -2 1 6 -6 17 -14 24 -8 7 -15 8 -15 3 0
-21 -41 -62 -56 -56 -27 10 -12 54 26 74 19 11 31 19 27 19 -5 0 -2 7 7 15 8
8 19 15 25 15 6 0 11 4 11 9 0 6 9 8 20 6 20 -4 50 18 50 36 0 13 -4 11 -17
-10z"/>
<path d="M3548 193 c-3 -13 -2 -23 3 -23 5 0 8 -10 6 -22 -3 -28 26 -32 31 -4
3 13 0 16 -9 11 -9 -6 -11 -3 -6 9 4 9 3 14 -2 11 -5 -3 -11 5 -13 17 l-3 23
-7 -22z"/>
<path d="M3300 189 c0 -5 5 -7 10 -4 6 3 10 8 10 11 0 2 -4 4 -10 4 -5 0 -10
-5 -10 -11z"/>
<path d="M3683 185 c0 -7 6 -11 14 -8 7 3 13 6 13 8 0 2 -6 5 -13 8 -8 3 -14
-1 -14 -8z"/>
<path d="M4333 190 c2 -8 10 -40 17 -70 8 -30 18 -59 23 -65 6 -6 7 1 2 20 -4
17 -9 50 -10 73 -3 41 -15 73 -15 41 0 -12 -2 -11 -11 1 -10 13 -10 13 -6 0z"/>
<path d="M3222 185 c4 -4 3 -14 -3 -22 -8 -8 -8 -13 -1 -13 6 0 12 5 14 12 3
7 12 9 23 4 16 -6 14 -10 -19 -38 -38 -31 -35 -51 5 -41 32 9 49 41 37 69 -6
13 -15 24 -19 24 -4 0 -16 3 -26 7 -10 3 -15 3 -11 -2z"/>
<path d="M3595 180 c-3 -6 1 -7 9 -4 18 7 21 14 7 14 -6 0 -13 -4 -16 -10z"/>
<path d="M450 158 c0 -21 5 -28 19 -28 10 0 22 7 25 16 8 22 8 23 -11 20 -10
-2 -21 2 -25 8 -4 6 -8 -1 -8 -16z"/>
<path d="M170 156 c0 -9 0 -18 0 -21 0 -3 3 -5 7 -5 10 -1 12 29 2 36 -5 3 -9
-2 -9 -10z"/>
<path d="M653 142 c0 -31 1 -32 19 -16 21 20 25 42 4 25 -11 -10 -15 -8 -19 6
-2 10 -4 3 -4 -15z"/>
<path d="M1170 160 c0 -5 7 -10 16 -10 8 0 12 5 9 10 -3 6 -10 10 -16 10 -5 0
-9 -4 -9 -10z"/>
<path d="M2436 161 c-4 -5 -2 -12 3 -15 5 -4 12 -2 15 3 4 5 2 12 -3 15 -5 4
-12 2 -15 -3z"/>
<path d="M1215 150 c3 -5 8 -10 11 -10 2 0 4 5 4 10 0 6 -5 10 -11 10 -5 0 -7
-4 -4 -10z"/>
<path d="M425 140 c-3 -5 -1 -10 4 -10 6 0 11 5 11 10 0 6 -2 10 -4 10 -3 0
-8 -4 -11 -10z"/>
<path d="M4370 136 c0 -9 5 -16 10 -16 6 0 10 4 10 9 0 6 -4 13 -10 16 -5 3
-10 -1 -10 -9z"/>
<path d="M230 124 c0 -8 5 -12 10 -9 6 4 8 11 5 16 -9 14 -15 11 -15 -7z"/>
<path d="M615 131 c-3 -5 -1 -12 5 -16 5 -3 10 1 10 9 0 18 -6 21 -15 7z"/>
<path d="M2416 132 c-3 -5 1 -9 9 -9 8 0 12 4 9 9 -3 4 -7 8 -9 8 -2 0 -6 -4
-9 -8z"/>
<path d="M996 114 c-19 -11 -25 -19 -18 -26 15 -15 38 -4 45 21 3 12 4 21 4
21 -1 -1 -15 -8 -31 -16z"/>
<path d="M1188 83 c-11 -27 -27 -56 -36 -65 -14 -17 -8 -18 111 -18 137 0 148
5 103 48 -14 13 -36 22 -55 22 -17 0 -31 5 -31 11 0 5 -5 7 -11 3 -6 -3 -9
-14 -6 -25 4 -15 2 -16 -14 -6 -12 8 -19 23 -19 44 0 47 -18 41 -42 -14z"/>
<path d="M3631 106 c-9 -11 -9 -16 1 -22 7 -4 10 -4 6 1 -4 4 -3 14 3 22 6 7
9 13 6 13 -2 0 -10 -6 -16 -14z"/>
<path d="M1070 106 c0 -2 7 -7 16 -10 8 -3 12 -2 9 4 -6 10 -25 14 -25 6z"/>
<path d="M1059 73 c-13 -16 -12 -17 4 -4 16 13 21 21 13 21 -2 0 -10 -8 -17
-17z"/>
<path d="M2386 82 c-12 -19 -19 -70 -7 -52 5 8 8 17 5 21 -2 4 1 9 7 11 7 2
10 10 7 18 -3 11 -6 11 -12 2z"/>
<path d="M5604 68 c3 -26 27 -34 53 -19 15 9 13 10 -12 6 -16 -3 -24 -2 -17 1
19 9 14 34 -8 34 -15 0 -19 -6 -16 -22z"/>
<path d="M3256 67 c3 -10 9 -15 12 -12 3 3 0 11 -7 18 -10 9 -11 8 -5 -6z"/>
<path d="M5528 73 c7 -3 16 -2 19 1 4 3 -2 6 -13 5 -11 0 -14 -3 -6 -6z"/>
<path d="M5754 51 c6 -8 1 -10 -16 -6 -22 5 -58 -9 -48 -18 5 -5 46 -10 68 -8
15 1 16 27 0 37 -7 4 -8 3 -4 -5z"/>
<path d="M3397 22 c1 -8 3 -16 3 -19 0 -3 7 0 15 7 8 7 15 17 15 22 0 6 -6 6
-14 -1 -8 -7 -16 -8 -18 -4 -3 4 -3 2 -1 -5z"/>
<path d="M313 24 c-28 -12 -11 -24 33 -24 32 0 44 4 42 13 -5 13 -54 20 -75
11z"/>
<path d="M3446 14 c-4 -10 -1 -14 6 -12 15 5 23 28 10 28 -5 0 -13 -7 -16 -16z"/>
<path d="M425 10 c-28 -7 -27 -8 13 -9 23 0 42 4 42 9 0 11 -11 11 -55 0z"/>
</g>
</svg>
